<svg width="126" height="117" viewBox="0 0 126 117" fill="none" xmlns="http://www.w3.org/2000/svg">
<g id="papaillon" clip-path="url(#clip0_3647_119)">
<path id="Vector" d="M52.1469 63.2342C49.9581 67.2081 45.6735 71.0412 40.6857 73.4799C35.6127 75.9664 30.3476 76.7718 26.1668 75.7201C26.523 73.6849 25.1027 71.3425 24.7563 69.0702C24.1784 65.2926 23.8397 60.6376 25.1583 56.9118C25.1695 56.918 25.1838 56.9187 25.1981 56.9193C25.2714 56.9454 25.3702 56.9784 25.5006 57.0071C26.3289 57.1896 28.5673 57.9296 30.7349 58.6522C38.2685 61.1517 39.7782 61.5303 40.8256 61.1611C42.7076 60.502 43.249 59.3314 43.3702 58.4688C43.7491 55.8532 40.6915 53.4273 37.2605 50.9621C36.8747 50.6816 36.5027 50.4161 36.3561 50.2979C36.2897 50.2463 36.2263 50.1891 36.1543 50.1344C36.4712 49.1172 35.8328 48.5277 35.6461 47.1132C33.9818 34.208 36.8473 21.7799 44.5766 11.2154C48.3301 17.4699 51.8525 27.4035 53.6148 36.7899C55.7629 48.2068 55.2396 57.5958 52.1326 63.2336L52.1469 63.2342Z" fill="#0F1017"/>
<g id="Group">
<path id="Vector_2" d="M123.154 49.5837C122.966 48.8937 122.644 48.2752 122.196 47.7256C121.742 47.1729 121.153 46.6916 120.441 46.2879L120.419 46.2754C118.434 45.1714 112.685 45.1878 112.442 45.1914C104.916 45.23 94.3702 47.4616 84.9398 51.0168C73.797 55.2156 65.5237 60.7179 61.6422 66.5106C58.7386 70.8484 57.2419 76.9866 57.5428 83.3413C57.8481 89.7278 59.9333 95.6912 63.2732 99.702C64.3803 101.028 65.6535 102.095 67.0679 102.882C69.1364 104.033 71.503 104.595 74.0894 104.526C78.5306 104.412 82.586 102.53 85.2149 100.976C88.5178 99.0133 90.1869 97.0788 90.4612 94.8883C90.8554 91.732 88.2658 89.1491 85.262 86.1527L85.2155 86.1049C85.1248 86.0178 85.0503 85.9544 84.9894 85.9059C84.3578 85.2909 83.0288 84.1928 81.3543 82.8073C79.4949 81.2676 76.179 78.5296 75.1873 77.4434C76.1834 77.4557 78.2292 78.213 79.8861 78.8931C80.3334 79.0761 80.6906 79.2235 80.9614 79.3156C81.492 79.4936 82.2301 79.7724 83.0868 80.0879C87.3523 81.6847 90.7761 82.8865 92.7629 82.6444C97.2517 82.1028 103.874 76.4363 108.642 71.7739C114.036 66.5002 119.209 60.3861 121.227 56.9031C122.288 55.0622 123.903 52.2775 123.168 49.5843L123.154 49.5837ZM118.132 55.1229C114.371 61.6342 98.3118 78.3944 92.3259 79.1136C91.0389 79.269 86.5 77.5714 84.3194 76.7537C83.5614 76.4712 82.8936 76.2241 82.3494 76.0312C82.2562 76.0013 82.1661 75.9658 82.0785 75.9391C81.9176 75.8862 81.5858 75.7456 81.2255 75.6037C77.9684 74.2603 74.6179 73.0847 72.6637 74.6629C71.9867 75.2089 71.2496 76.2706 71.6019 78.2167C71.8062 79.3628 72.9234 80.4602 79.0825 85.5488C80.5967 86.8011 82.0251 87.9839 82.5275 88.4757C82.6126 88.5597 82.6847 88.6144 82.7424 88.6685C82.7753 88.7014 82.8138 88.7375 82.8467 88.7705C85.0525 90.9641 87.1006 93.0334 86.9238 94.4434C86.8007 95.4147 85.582 96.6186 83.3913 97.9114C80.7237 99.4955 71.5922 104.132 65.9946 97.4157C65.8667 97.264 65.7475 97.1098 65.6227 96.9525C60.0454 89.7127 59.4958 76.0803 64.5852 68.4846C72.0632 57.3191 97.5688 49.0945 111.726 48.7546C111.97 48.751 112.208 48.7443 112.448 48.7463C114.946 48.7301 118.028 49.0461 118.675 49.3838C119.449 49.8217 119.634 50.2395 119.713 50.5179C120.055 51.7847 118.799 53.9636 118.123 55.1254L118.132 55.1229Z" fill="#0F1017"/>
<path id="Vector_3" d="M72.6691 74.6662C71.992 75.2122 71.2549 76.2739 71.6072 78.22C71.8115 79.3661 72.9287 80.4635 79.0879 85.5521C80.602 86.8045 82.0305 87.9872 82.5329 88.479C82.6179 88.563 82.69 88.6177 82.7478 88.6718C82.7807 88.7047 82.8192 88.7408 82.8521 88.7738C80.5204 91.8334 75.7342 93.923 72.3604 95.0263C70.0097 95.7908 67.2142 95.539 65.628 96.9558C60.0507 89.716 59.5011 76.0836 64.5905 68.4879C72.0685 57.3224 97.5741 49.0978 111.731 48.7579C108.057 57.4556 101.456 65.6751 93.5007 70.6586C91.6687 71.8068 83.0289 75.1648 82.6284 75.6083C82.5289 75.7214 82.4306 75.8717 82.3404 76.0339C82.2472 76.004 82.1571 75.9685 82.0695 75.9418C81.9086 75.8889 81.5769 75.7482 81.2166 75.6064C77.9594 74.263 74.6089 73.0874 72.6548 74.6656L72.6691 74.6662Z" fill="#0F1017"/>
</g>
<path id="Vector_4" d="M118.132 55.1232C114.37 61.6344 98.3114 78.3947 92.3255 79.1139C91.0385 79.2693 86.4996 77.5717 84.319 76.754C83.5611 76.4715 82.8932 76.2244 82.349 76.0315C82.4392 75.8693 82.5375 75.719 82.637 75.6059C83.0375 75.1624 91.6773 71.8044 93.5093 70.6562C101.462 65.6783 108.065 57.4532 111.74 48.7555C111.983 48.7519 112.221 48.7452 112.462 48.7472C114.96 48.731 118.042 49.047 118.689 49.3848C119.463 49.8227 119.648 50.2404 119.727 50.5188C120.069 51.7856 118.813 53.9645 118.137 55.1263L118.132 55.1232Z" fill="#0F1017"/>
<path id="Vector_5" d="M83.3967 97.9142C80.7292 99.4983 71.5976 104.135 66 97.4185C65.8721 97.2668 65.7529 97.1126 65.6281 96.9553C67.2112 95.5441 70.0098 95.7903 72.3605 95.0258C75.7342 93.9224 80.5205 91.8329 82.8522 88.7733C85.058 90.9669 87.106 93.0362 86.9292 94.4462C86.8061 95.4175 85.5874 96.6214 83.3967 97.9142Z" fill="#0F1017"/>
<g id="Group_2">
<path id="Vector_6" d="M57.1199 36.1336C55.1972 25.9038 51.4161 15.4089 47.2558 8.76706L47.2316 8.73162C47.1919 8.65827 47.1521 8.58491 47.1037 8.51404C44.1259 3.82603 41.6105 1.83359 38.9483 2.06597C35.352 2.37185 33.1734 6.89327 31.2459 11.5031C29.7409 15.1032 27.5209 22.1204 26.1934 29.0337C24.473 37.9691 24.7554 44.028 27.0284 47.0352C28.0702 48.4129 30.2037 50.0391 32.0906 51.4769C32.8471 52.0515 33.5619 52.5956 34.0812 53.0309C34.3296 53.2423 34.6904 53.5017 35.1929 53.8617C38.0438 55.909 39.2194 57.0463 39.644 57.6779C38.1876 57.3876 34.2898 56.0905 31.8569 55.2789C29.4662 54.4835 27.3887 53.7964 26.3511 53.556C26.2778 53.5299 26.1678 53.4907 26.0318 53.4589C25.7223 53.3966 25.3937 53.3163 25.0563 53.2384C23.6279 52.8978 21.8335 52.478 20.101 52.6052C18.3628 52.7293 16.6833 53.4059 15.4784 55.2691C13.137 58.8725 13.9815 64.5924 15.5484 68.7371C17.2258 73.1703 19.8769 76.5636 22.8679 78.2275C23.5332 78.5976 24.211 78.8795 24.9012 79.0731C30.0306 80.4988 36.1912 79.6498 42.242 76.6821C47.9471 73.8882 52.6894 69.6141 55.2521 64.9549C58.7518 58.5983 59.4154 48.3648 57.1112 36.1361L57.1199 36.1336ZM40.685 73.4801C35.612 75.9666 30.3469 76.772 26.1661 75.7203C26.0642 75.6929 25.9624 75.6655 25.8605 75.6381C23.1783 74.8929 20.5071 71.7593 18.8837 67.466C17.3782 63.4872 17.1727 59.514 18.3392 57.417C18.3827 57.3388 18.4232 57.2661 18.4692 57.1965C19.4433 55.6955 21.4813 56.0457 24.2505 56.7003C24.5624 56.7713 24.8712 56.8479 25.1663 56.9095C25.1775 56.9158 25.1918 56.9164 25.2061 56.917C25.2794 56.9431 25.3782 56.9761 25.5087 57.0048C26.3369 57.1873 28.5753 57.9273 30.743 58.6499C38.2765 61.1494 39.7863 61.528 40.8336 61.1588C42.7157 60.4997 43.2571 59.3291 43.3782 58.4665C43.7571 55.8509 40.6995 53.425 37.2685 50.9598C36.8828 50.6794 36.5107 50.4138 36.3642 50.2956C36.2977 50.244 36.2344 50.1868 36.1623 50.1321C35.6152 49.6813 34.9475 49.1707 34.2407 48.6384C32.6196 47.4071 30.6054 45.8692 29.8585 44.8825C28.2889 42.8085 28.2212 37.2717 29.6809 29.6998C30.9012 23.3346 33.0453 16.4142 34.5247 12.8732C35.261 11.1154 37.4936 5.75994 39.2473 5.60791C39.6469 5.57393 41.171 5.8214 44.0874 10.4093L44.1116 10.4448C44.1488 10.5094 44.183 10.5796 44.2258 10.6474C44.3406 10.8358 44.4611 11.0272 44.5784 11.2243C48.3319 17.4788 51.8543 27.4124 53.6166 36.7988C55.7647 48.2157 55.2415 57.6047 52.1344 63.2425C49.9457 67.2164 45.661 71.0494 40.6732 73.4882L40.685 73.4801Z" fill="#0F1017"/>
<path id="Vector_7" d="M26.1658 75.7201C26.0639 75.6927 25.962 75.6653 25.8601 75.6379C23.178 74.8927 20.5068 71.7591 18.8834 67.4658C17.3779 63.487 17.1723 59.5138 18.3388 57.4169C18.3824 57.3386 18.4228 57.2659 18.4689 57.1963C19.443 55.6953 21.481 56.0456 24.2502 56.7001C24.5621 56.7711 24.8709 56.8477 25.166 56.9093C23.8443 60.6407 24.1829 65.2957 24.764 69.0677C25.1104 71.34 26.5276 73.688 26.1745 75.7176L26.1658 75.7201Z" fill="#0F1017"/>
<path id="Vector_8" d="M36.1684 50.1348C35.6212 49.684 34.9535 49.1734 34.2467 48.6411C32.6257 47.4098 30.6114 45.8719 29.8645 44.8853C28.295 42.8112 28.2272 37.2745 29.6869 29.7025C30.9073 23.3373 33.0514 16.417 34.5308 12.8759C35.2671 11.1181 37.4996 5.76268 39.2533 5.61066C39.6529 5.57667 41.1771 5.82414 44.0934 10.4121L44.1176 10.4475C44.1549 10.5121 44.189 10.5824 44.2318 10.6502C44.3467 10.8385 44.4671 11.03 44.5844 11.2271C36.8583 21.7859 33.9928 34.214 35.654 47.1248C35.8407 48.5394 36.4791 49.1288 36.1621 50.146L36.1684 50.1348Z" fill="#0F1017"/>
</g>
<path id="Vector_9" d="M72.7331 40.1255C72.3387 56.7181 62.4267 75.3383 50.4708 86.6048C48.4985 88.3999 46.4995 90.085 44.1546 91.4971C44.1179 88.7601 44.4956 86.1731 44.9808 83.5507C48.2427 67.4622 58.8367 49.2215 72.7331 40.1255Z" fill="#0F1017"/>
<path id="Vector_10" d="M67.94 22.4345C67.5007 27.9748 69.8522 33.5518 74.117 37.1106C75.0617 37.8997 76.4079 36.5325 75.4633 35.7434C71.5326 32.4657 69.4523 27.4935 69.8577 22.3957C69.8978 21.8762 69.3612 21.4458 68.8796 21.4562C68.3179 21.4658 67.9801 21.915 67.94 22.4345Z" fill="#0F1017"/>
<path id="Vector_11" d="M74.5651 37.3594C79.9614 39.2264 85.9936 38.0424 90.3906 34.4549C90.7916 34.1288 90.7193 33.4296 90.379 33.0938C89.9754 32.7009 89.4279 32.777 89.0181 33.1056C88.7744 33.3068 88.5077 33.5099 88.1359 33.7571C87.6666 34.0744 87.1866 34.3713 86.6881 34.6358C85.4268 35.3107 84.0656 35.7836 82.6585 36.0626C80.1129 36.5722 77.4572 36.3322 75.0144 35.4858C74.5236 35.3153 73.9671 35.7234 73.8518 36.1938C73.7191 36.735 74.0631 37.1826 74.5595 37.3563L74.5651 37.3594Z" fill="#0F1017"/>
<path id="Vector_12" d="M69.6588 45.5328C72.8915 47.3312 76.9704 46.1679 78.7691 42.9345C80.5679 39.7011 79.4054 35.6221 76.1727 33.8237C72.94 32.0253 68.8611 33.1886 67.0624 36.422C65.2636 39.6554 66.4261 43.7344 69.6588 45.5328Z" fill="#0F1017"/>
</g>
<defs>
<clipPath id="clip0_3647_119">
<rect width="101.061" height="76.5937" fill="white" transform="translate(37.2354) rotate(29.0876)"/>
</clipPath>
</defs>
</svg>
