<svg width="72" height="89" viewBox="0 0 72 89" fill="none" xmlns="http://www.w3.org/2000/svg">
<g id="Calque_1" clip-path="url(#clip0_3648_352)">
<g id="Group 1">
<path id="Vector" d="M68.0292 59.3223C68.8138 55.7178 74.3925 52.0201 70.8128 47.5969C65.5229 41.0611 55.1661 42.9031 48.705 46.3643L43.4333 49.1888C45.048 47.5469 46.5513 45.9232 48.4093 44.5564C51.1748 42.5234 54.5407 41.193 57.5108 39.5283C60.531 37.8341 65.316 35.6714 63.5034 31.412C62.8098 29.7815 60.2467 27.1571 58.7753 26.1406C57.106 24.9853 54.6294 26.3293 52.8441 26.4976C50.2515 26.741 51.6615 25.4356 51.6774 24.0666C51.7229 20.0232 44.7501 19.6502 41.9778 20.6099C34.1476 23.3161 32.9172 34.2706 34.2954 41.2567C33.9338 40.7223 33.8178 39.9377 33.6632 39.3077C32.6261 35.1052 32.3601 30.4523 32.592 26.1451C35.4735 27.4528 36.058 23.0159 32.8763 23.6823L33.0833 21.8766C35.9897 24.3463 37.0245 18.7633 33.6132 19.914L33.2288 19.7071C33.7041 19.1795 33.5586 17.9037 33.7291 17.4603C33.9111 16.9873 34.5888 17.9469 35.03 18.1129C37.2701 18.943 37.4953 13.874 34.3705 15.6501L34.7116 14.0082C35.1892 12.6641 35.6691 11.3179 36.1467 9.97386C36.1398 9.69642 36.0966 9.54633 36.017 9.52359C35.7464 9.44627 35.0527 10.8244 33.9406 13.6602C33.9202 13.7193 33.8929 13.7807 33.8542 13.8444C33.5267 14.2606 33.5085 13.5101 33.0014 13.2486C30.6362 12.0297 29.8402 16.6097 32.8217 15.7342L33.2129 15.9412L32.6443 17.6786C31.0683 16.2982 29.2603 17.9879 30.5429 19.6525L32.2122 20.1392L31.6437 21.5878C28.9965 20.0869 28.3688 24.7852 31.4299 23.9756L30.9523 33.8862C28.1345 29.6768 23.859 20.7782 17.5389 22.9955C14.4072 24.0939 15.3943 26.0815 14.0934 27.6415C12.6106 29.4176 10.9527 28.5875 9.31068 29.8497C5.74468 32.5923 5.62188 36.5038 8.46012 39.8103C12.4537 44.4632 18.0187 48.0608 23.9044 49.6777C23.8635 50.1212 22.1487 50.0507 21.8099 50.0211C15.9401 49.514 10.5888 46.0187 4.44609 49.1433C1.19394 50.7989 -1.04163 54.6512 0.50712 58.2057C1.81935 61.2189 4.70991 60.3525 5.71057 61.9512C6.36782 62.9995 4.73265 65.1827 4.77131 66.7291C4.81907 68.628 7.01598 71.6776 8.70574 72.4235C13.3747 74.4861 23.5747 67.4159 26.6199 64.0638C27.3772 63.2292 28.0549 62.0626 28.8577 61.2394L22.5467 73.6242C20.4681 77.6699 22.2033 81.9407 25.6647 84.5855C28.4256 86.6936 31.6073 85.4087 33.836 83.2142C36.7061 91.442 46.3807 86.3525 48.7982 80.4966C50.8723 75.4731 47.5065 66.5608 44.4863 62.3514L47.5997 64.7915C52.4165 68.6439 62.8394 71.4092 67.8677 66.7109C70.4967 64.2549 67.4083 62.1922 68.0314 59.3223H68.0292ZM52.769 51.5493C52.0458 51.5675 45.6211 51.9155 45.612 52.5136L52.6303 53.7803C54.7363 54.3033 56.7649 55.0492 58.7139 56.018C58.7889 56.5638 58.4546 56.2545 58.2704 56.2431C54.8932 56.043 51.1566 54.9014 47.7134 54.7468C47.4132 54.7331 45.4801 54.6535 45.4733 54.9764C48.7232 56.5479 52.4165 58.3444 55.1092 60.7959C55.4185 61.0779 56.0166 61.4304 55.4754 61.7465C52.3915 59.6111 48.7073 56.9549 45.114 55.8224C44.8729 55.7474 42.394 55.1402 42.4395 55.7042L51.5 62.9882L52.7349 64.4982C50.6131 63.4089 48.5663 62.1558 46.5763 60.8391C44.9093 59.7362 43.0239 57.9601 41.3569 57.0664C40.9862 56.8685 40.6246 56.6934 40.1902 56.8162C39.649 57.1801 40.4927 59.4542 40.6838 59.975C42.5077 64.9416 45.5665 69.5968 45.3118 75.1524C43.8381 73.7038 39.2146 60.4252 38.4004 60.3434C37.9319 60.2979 38.2844 60.8687 38.2958 60.9892C38.4436 62.3491 38.6961 63.8182 38.6324 65.1872C38.4254 69.7673 36.5037 73.9631 33.5267 77.4243C33.1265 77.1287 33.4039 76.5942 33.4767 76.1963C34.1976 72.2961 36.863 66.7314 36.4469 63.0246C36.1944 60.7777 35.6213 58.8857 33.6291 61.4418C31.3435 64.3754 30.5839 68.6234 28.9578 71.8686C28.3779 72.378 28.487 68.9395 28.5075 68.6871C28.9214 63.6659 32.0189 60.3206 34.4796 56.1567C34.4614 55.7201 32.5374 56.2522 32.2395 56.3295C28.0731 57.4166 24.2433 59.8135 21.189 62.8449C20.7751 62.5811 21.0025 62.5675 21.0503 62.3355C21.9827 57.8669 25.8671 56.093 29.3399 54.1418C29.5946 53.9986 29.8811 54.1236 29.4831 53.7848C24.5208 53.9781 20.3043 55.4995 16.031 57.9146C15.7172 58.092 15.7354 58.4263 15.3874 57.9419C18.1666 55.404 20.9343 52.1224 24.6982 51.14C27.0179 50.5351 29.4308 51.1969 31.6437 51.9337L33.7428 52.8274C31.0592 50.1849 27.6365 47.9676 24.1069 46.6554C22.7673 46.1574 21.3141 45.9937 19.9814 45.4865C23.4132 43.9993 26.7518 45.341 30.0381 46.3962C30.2905 46.4781 30.5748 46.66 30.8318 46.4712C27.2999 42.8849 23.768 39.1463 19.0899 37.0973C23.9727 36.8017 28.0276 40.7791 31.4049 43.8628C31.8142 43.5967 31.5936 43.5876 31.5413 43.3534C31.182 41.7547 30.5088 40.1833 30.0949 38.5937C30.029 38.339 29.7993 38.0888 30.3087 38.1548C30.6521 38.9803 31.3503 39.6534 31.6846 40.4653C32.3123 41.9958 32.6261 45.2478 33.1742 47.1148C33.529 48.3292 34.9049 52.7364 35.5758 53.4732C36.2149 54.1737 37.2769 54.5102 38.0206 53.7643C38.1594 53.6256 38.8894 52.3225 38.8894 52.2339C38.8894 52.0724 37.4976 49.8892 37.2701 49.4162C35.5804 45.9277 35.3393 44.4473 35.9806 40.5949C36.1808 39.3987 36.4218 37.6044 37.3907 36.829L37.4907 46.4485L38.8371 40.5881C40.0674 37.327 41.7868 34.0295 44.6864 31.9669L40.5428 43.3329C40.3222 44.5496 39.765 46.0482 40.5314 47.1648C41.9323 45.9709 42.4531 44.1084 43.4265 42.6007C44.4044 41.0861 45.869 38.8461 47.8158 38.8279C46.6241 40.695 45.1094 42.3482 43.87 44.1903C43.2377 45.1318 40.238 49.7664 41.1886 50.7125L41.7731 50.8717C45.9964 50.5305 50.4129 50.1826 54.6476 50.3782C57.3016 50.501 60.3718 50.7352 62.8234 51.7358C59.4758 51.8495 56.119 51.4561 52.769 51.5402V51.5493Z" fill="#2B2D3F"/>
<path id="Vector_2" d="M42.0298 13.5628C41.9844 12.9965 41.4385 12.6395 40.8086 12.2233L40.7995 12.2165C40.7813 12.2051 40.7654 12.196 40.7517 12.1892C40.6198 12.1051 40.3469 11.9595 40.0058 11.7799C39.626 11.5775 38.9483 11.2182 38.7345 11.0658C38.9073 11.0317 39.2939 11.0908 39.6078 11.1499C39.6919 11.1659 39.7602 11.1795 39.8102 11.1841C39.908 11.1954 40.049 11.2182 40.2082 11.2432C41.011 11.3683 41.6523 11.4547 41.9912 11.341C42.7553 11.084 43.7082 9.85597 44.3746 8.87127C45.1274 7.75696 45.8119 6.50164 46.037 5.82168C46.1576 5.46237 46.3372 4.91658 46.1121 4.47312C46.0552 4.35942 45.9756 4.26391 45.8779 4.18431C45.7778 4.10472 45.6595 4.04104 45.5208 3.99556H45.5163C45.1296 3.87276 44.1267 4.08198 44.0835 4.09107C42.769 4.36851 41.0087 5.13717 39.4873 6.09912C37.6929 7.23391 36.4443 8.4915 35.9758 9.64448C35.6233 10.5064 35.5847 11.6321 35.8644 12.7327C36.1464 13.838 36.7263 14.8045 37.4541 15.3844C37.6952 15.5754 37.9567 15.7164 38.2319 15.8028C38.6344 15.9301 39.0688 15.9415 39.5191 15.8369C40.2901 15.6573 40.9314 15.182 41.3339 14.8181C41.8411 14.3565 42.0617 13.9585 42.0321 13.5651L42.0298 13.5628Z" fill="#2B2D3F"/>
<path id="Vector_3" d="M29.2149 8.09323C29.6242 7.69981 30.2701 7.79304 31.0183 7.89993H31.0297C31.0524 7.90448 31.0684 7.90903 31.082 7.91357C31.2367 7.93859 31.5369 8.00909 31.9121 8.10005C32.3306 8.20011 33.0765 8.38204 33.3381 8.40706C33.2289 8.26606 32.9037 8.05457 32.6285 7.89083C32.5534 7.84762 32.4943 7.81124 32.4534 7.78167C32.3715 7.72482 32.2532 7.64978 32.1168 7.56108C31.4322 7.12218 30.8955 6.76287 30.7159 6.45359C30.3133 5.75543 30.4134 4.20448 30.568 3.02421C30.7432 1.6893 31.0615 0.297541 31.3436 -0.361954C31.4937 -0.709895 31.7165 -1.23749 32.1805 -1.42169C32.2987 -1.46945 32.4215 -1.48992 32.5489 -1.4831C32.6763 -1.47627 32.8082 -1.44444 32.9423 -1.38758H32.9469C33.3153 -1.22157 33.9294 -0.39834 33.9566 -0.364228C34.7572 0.713705 35.5668 2.45568 36.0694 4.18401C36.663 6.22163 36.7631 7.99089 36.3514 9.16434C36.0444 10.0422 35.328 10.9131 34.3888 11.5499C33.4449 12.1912 32.3715 12.53 31.4413 12.4823C31.1343 12.4664 30.8455 12.3981 30.5817 12.2799C30.1973 12.1071 29.863 11.8296 29.5947 11.4544C29.1353 10.8085 28.9692 10.0285 28.9101 9.48727C28.8373 8.80503 28.9329 8.36158 29.2171 8.08641L29.2149 8.09323Z" fill="#2B2D3F"/>
</g>
</g>
<defs>
<clipPath id="clip0_3648_352">
<rect width="72" height="89" fill="white"/>
</clipPath>
</defs>
</svg>
