<svg width="174" height="59" viewBox="0 0 174 59" fill="none" xmlns="http://www.w3.org/2000/svg">
<g id="Frame 27">
<path id="Vector" d="M5.32207 58.9997C3.82549 58.9997 2.5803 57.6624 2.41077 56.1609C2.24708 54.325 3.98921 46.1487 4.40428 44.2307C3.24092 44.2307 1.98985 44.0606 1.15971 43.3979C-0.255023 42.2306 -0.418671 40.0605 0.908374 38.7232C1.40528 38.1366 1.98989 37.4738 2.73818 37.1395C3.81969 36.8052 4.98305 37.0574 5.81319 37.8903C6.14641 35.9723 8.88812 25.2094 9.47272 23.3735C10.7179 18.6988 15.044 1.8418 21.6149 1.8418C23.4447 1.8418 25.2745 3.09112 26.1047 4.76274C27.6012 7.68369 28.2677 11.0211 28.8464 14.3585C30.0916 21.0332 30.5944 27.796 31.1731 34.635C32.0851 34.5529 32.9211 34.7992 33.4999 35.4679C35.3297 37.2216 34.1663 40.1426 31.6701 40.3889C31.9215 44.0606 32.0851 47.7324 32.6697 51.322C33.9149 52.5713 33.9149 55.2459 32.8334 56.5773C32.167 57.3281 31.3369 57.6624 30.5067 57.6624C29.4252 57.6624 28.4255 57.1638 27.8468 56.1609C26.5139 53.9086 26.0988 43.8964 25.8533 41.2218C20.7789 42.0547 15.6228 42.8934 10.4666 43.5562C9.46692 47.8966 8.55496 52.149 8.22174 56.4893C8.05805 57.9087 6.7251 58.9938 5.31037 58.9938L5.32207 58.9997ZM11.893 37.468C16.3827 36.7993 20.9602 36.1307 25.4499 35.3799C24.953 29.3738 24.3684 23.3618 23.4564 17.4378C23.0413 14.3526 22.6263 11.2616 21.4629 8.42273C19.3817 11.0093 18.3879 14.2646 17.3064 17.4378C15.1434 24.0304 13.4831 30.7873 11.8988 37.468H11.893Z" fill="#FFFAF7"/>
<path id="Vector_2" d="M43.9109 53.909C42.8294 53.909 41.7479 53.3225 41.0815 52.3254C39.7486 50.4895 39.9181 43.2282 39.9181 40.9759C39.9181 34.3833 39.9999 27.7906 40.1694 21.1979C40.2513 18.6113 40.4209 6.7633 41.0815 4.34091C41.3328 3.09159 42.7475 2.34082 43.9109 2.34082C45.8226 2.34082 47.4069 4.17668 46.6586 6.17676C46.4072 7.09762 46.4072 8.09474 46.4072 9.0156C46.1558 14.6053 45.3257 42.8939 45.9921 48.4894C47.5705 49.5745 47.6582 51.8268 46.1558 53.082C45.4893 53.6686 44.741 53.9149 43.9109 53.9149V53.909Z" fill="#FFFAF7"/>
<path id="Vector_3" d="M61.625 51.2406C57.5503 48.3196 57.0476 36.3015 56.9657 31.7969C55.8024 31.8791 54.4695 31.967 53.3061 31.6327C52.5578 31.4685 51.8913 30.8819 51.64 30.2133C50.6403 28.1252 52.1369 25.955 54.2181 25.955C55.13 25.955 55.9661 25.955 56.878 25.8729C56.878 22.6998 57.3749 8.1009 58.1232 5.00985C58.5383 3.67255 59.6198 3.00977 60.8708 3.00977C62.952 3.00977 63.7822 4.42918 63.9458 6.26504C64.0277 7.0158 64.0277 7.93667 63.6126 8.59945C63.6126 8.68157 63.4431 8.85166 63.4431 8.85166C62.8585 14.195 62.7766 19.6146 62.6948 24.9579C63.7763 24.7937 68.1842 24.0371 69.1838 24.2893C72.4284 24.7878 72.4284 29.7147 69.102 30.0491C67.0208 30.2133 64.8578 30.5476 62.7825 30.8819C62.8643 34.7179 63.1157 42.9001 65.0273 46.3196C66.1907 45.4867 67.1904 44.3136 68.1901 43.3165C68.6051 42.8179 69.523 42.5657 70.1894 42.5657C72.3524 42.5657 73.7671 44.9881 72.6856 46.9061C71.5222 48.742 67.8627 51.8271 65.6996 52.3316C64.2849 52.5838 62.7065 52.1673 61.625 51.2465V51.2406Z" fill="#FFFAF7"/>
<path id="Vector_4" d="M82.2501 49.6443C80.9172 49.6443 79.672 48.7117 79.0056 47.3098C78.0059 45.0693 77.7603 42.3595 77.5089 39.8374C77.012 33.2975 77.0939 26.8573 77.0939 20.4113C77.1757 18.1707 77.4271 6.31099 77.6785 4.16427C77.9299 2.20524 79.3446 1.08496 80.9231 1.08496C81.7532 1.08496 82.671 1.46034 83.3375 2.20524C84.3371 3.32553 84.2494 5.3784 83.3375 6.59253C82.8406 15.5548 82.7528 24.5229 83.0042 33.4852C84.7522 28.6287 88.4118 22.8396 93.568 22.8396C99.0574 22.8396 101.139 29.0041 101.554 34.2301C101.805 37.6848 101.723 41.2333 101.472 44.688C101.39 45.3391 101.057 45.996 100.642 46.5532C100.057 47.2043 99.3087 47.4858 98.5604 47.4858C96.982 47.4858 95.4854 46.084 95.6491 44.0311C95.9005 41.1336 95.9005 38.3358 95.8128 35.5322C95.731 33.9427 95.4796 32.359 94.895 30.8634C94.7313 30.3003 94.1468 29.2739 93.6498 29.2739C92.4046 29.2739 90.9022 31.0452 90.2416 32.0775C88.8268 34.3181 87.9967 36.934 87.3303 39.55C86.8334 41.509 85.8337 47.4858 84.3371 48.6999C84.1734 48.7938 84.0039 48.9815 83.8402 49.0753C83.3433 49.4507 82.7587 49.6384 82.2618 49.6384L82.2501 49.6443Z" fill="#FFFAF7"/>
<path id="Vector_5" d="M117.016 48.1487C113.193 48.1487 109.948 46.09 107.616 42.7291C105.371 39.5501 104.12 34.8754 104.956 30.9515C106.038 25.1565 110.527 19.3615 116.098 19.3615C119.594 19.3615 122.751 21.5141 123.751 25.7196C124.084 27.0276 123.92 28.5232 123.587 29.8312C123.09 31.4207 122.091 32.8225 121.009 33.9428C119.343 35.9077 117.765 36.6526 115.438 36.6526C113.941 36.6526 112.445 36.3711 110.948 35.9957C111.86 38.987 114.023 41.603 116.934 41.603C117.431 41.603 117.934 41.5091 118.349 41.4153C119.261 41.2276 120.097 40.5765 121.009 40.1073C121.594 39.7319 122.254 39.7319 122.839 39.9196C124.92 40.5765 125.668 43.3802 124.336 45.1515C123.505 46.2718 120.091 47.7675 118.846 47.9552C118.262 48.049 117.683 48.1429 117.016 48.1429V48.1487ZM112.608 12.1002C111.778 12.1002 110.948 11.7659 110.282 11.0973C109.282 10.0943 109.282 8.34054 110.282 7.26131C112.03 5.42546 117.186 0 119.846 0C121.757 0 123.342 1.83586 122.593 3.92392C122.096 5.17325 120.682 5.75978 119.6 6.51055C117.689 7.84785 116.104 9.6837 114.362 11.3495C113.865 11.848 113.281 12.1002 112.614 12.1002H112.608ZM116.104 30.1127C116.771 29.7374 117.186 29.0863 117.601 28.4294C117.852 28.1479 118.186 27.4968 118.098 27.1214C117.846 26.1888 117.098 25.9073 116.268 25.9073C114.269 25.9073 112.527 27.5906 111.609 29.4617C112.69 29.7432 113.772 29.9309 114.853 30.1186C115.105 30.1186 115.853 30.2125 116.098 30.1186L116.104 30.1127Z" fill="#FFFAF7"/>
<g id="Group">
<path id="Vector_6" d="M134.981 48.149C132.818 48.149 130.573 46.6474 129.41 44.8937C127.913 42.5593 127.832 39.3861 128.165 36.6353C128.416 33.7143 129.498 30.7934 131.076 28.3768C133.572 24.3708 138.98 17.9482 144.218 17.9482C145.299 17.9482 146.381 18.2005 147.293 18.8691C147.878 18.4527 148.456 18.2826 149.123 18.2826C150.701 18.2826 152.116 19.6199 152.116 21.5378C152.034 26.5469 151.701 31.7201 152.946 36.559C153.279 37.7262 153.776 38.9755 154.191 40.1486C154.94 42.2367 153.443 44.1547 151.531 44.1547C151.116 44.1547 150.701 44.0725 150.286 43.8203C149.701 43.5681 149.205 43.1517 148.953 42.6531C148.123 40.8173 147.538 38.8993 147.123 36.8933C144.879 41.4859 140.716 48.1607 134.981 48.1607V48.149ZM136.647 41.6443C141.219 37.8905 143.633 30.4649 145.13 24.9573C144.715 24.5409 144.3 23.62 143.797 23.7901C140.968 24.5409 136.975 29.7963 135.566 32.1365C134.402 34.3067 133.736 36.8933 133.818 39.3157C133.818 40.1486 133.987 41.9024 134.736 42.3188C135.233 42.571 136.15 41.9845 136.647 41.6502V41.6443Z" fill="#FFFAF7"/>
<g id="Group_2">
<path id="Vector_7" d="M152.846 31.139C153.256 33.6611 154.799 36.4999 156.979 38.7346C159.195 41.0104 161.826 42.4298 164.234 42.6585C164.427 41.5148 165.62 40.5353 166.234 39.3974C167.251 37.5029 168.303 35.0981 168.303 32.8751C168.297 32.8751 168.286 32.8751 168.28 32.8751C168.239 32.8751 168.175 32.8751 168.104 32.8634C167.631 32.8047 166.31 32.7754 165.029 32.7461C160.575 32.6522 159.71 32.5643 159.224 32.1771C158.353 31.4733 158.289 30.7519 158.383 30.2709C158.675 28.8163 160.744 28.1007 163.024 27.4438C163.281 27.3676 163.527 27.2972 163.626 27.262C163.673 27.2444 163.714 27.2268 163.761 27.2092C163.784 26.6109 164.234 26.4174 164.597 25.7018C167.9 19.1736 168.724 12.0414 166.625 4.98535C163.469 7.59544 159.739 12.1997 157.038 16.8392C153.752 22.4876 152.268 27.5611 152.852 31.139H152.846Z" fill="black"/>
<g id="Group_3">
<path id="Vector_8" d="M150.876 31.462C151.356 34.4123 153.057 37.5737 155.547 40.131C158.19 42.8467 161.288 44.4596 164.264 44.6649C164.661 44.6942 165.076 44.6649 165.497 44.6004C167.391 44.2837 169.432 42.9816 171.15 40.9463C172.758 39.0459 174.278 36.1719 173.723 33.8199C173.436 32.6057 172.676 31.9312 171.782 31.5382C170.887 31.1453 169.858 31.028 169.04 30.94C168.847 30.9165 168.66 30.8989 168.485 30.8755C168.409 30.8637 168.338 30.8637 168.298 30.8637C167.701 30.7933 166.479 30.7699 165.065 30.7406C163.627 30.7112 161.323 30.6643 160.499 30.5411C160.844 30.2889 161.68 29.9018 163.568 29.3563C163.901 29.2625 164.141 29.1921 164.311 29.1276C164.667 28.9985 165.146 28.8402 165.655 28.6759C166.924 28.2712 168.356 27.8079 169.163 27.2741C170.928 26.1069 172.214 22.9514 172.986 17.8896C173.582 13.9774 173.728 9.83642 173.612 7.64278C173.46 4.83914 173.161 2.02963 171.314 1.18502C169.952 0.563291 168.245 1.14396 165.79 3.0678C165.754 3.09713 165.714 3.12645 165.684 3.16164L165.667 3.17924C162.218 5.91836 158.248 10.769 155.308 15.8308C151.794 21.878 150.216 27.4266 150.871 31.462H150.876ZM152.846 31.1394C152.262 27.5674 153.753 22.488 157.032 16.8397C159.727 12.2002 163.457 7.59585 166.62 4.98577C166.719 4.90366 166.818 4.82154 166.912 4.74529C166.947 4.71596 166.976 4.6925 167.011 4.66318L167.029 4.64558C169.432 2.7628 170.285 2.92116 170.49 3.01501C171.39 3.42559 171.56 6.68672 171.618 7.76008C171.735 9.91854 171.565 13.9891 171.016 17.5963C170.361 21.8839 169.285 24.8107 168.07 25.6142C167.491 25.9955 166.134 26.4295 165.047 26.7814C164.574 26.9339 164.129 27.0747 163.755 27.2096C163.708 27.2272 163.662 27.2448 163.621 27.2624C163.521 27.2976 163.276 27.368 163.019 27.4442C160.739 28.1011 158.669 28.8167 158.377 30.2713C158.277 30.7523 158.348 31.4737 159.219 32.1776C159.704 32.5705 160.569 32.6527 165.024 32.7465C166.304 32.7758 167.631 32.7993 168.099 32.8638C168.175 32.8755 168.233 32.8755 168.274 32.8755C168.28 32.8755 168.292 32.8755 168.298 32.8755C168.467 32.899 168.642 32.9166 168.818 32.9342C170.402 33.1102 171.548 33.3096 171.782 34.2891C171.793 34.336 171.799 34.3829 171.811 34.4299C172.033 35.7613 171.174 37.8318 169.63 39.6559C167.964 41.6267 165.965 42.7821 164.404 42.6707C164.346 42.6707 164.287 42.659 164.229 42.6531C161.82 42.4243 159.189 41.0049 156.974 38.7292C154.799 36.4945 153.256 33.6556 152.841 31.1335L152.846 31.1394Z" fill="#FFFAF7"/>
<path id="Vector_9" d="M164.229 42.6594C164.287 42.6594 164.345 42.6711 164.404 42.677C165.959 42.7884 167.964 41.6329 169.63 39.6622C171.174 37.8381 172.033 35.7676 171.811 34.4362C171.805 34.3892 171.793 34.3423 171.782 34.2954C171.548 33.3159 170.408 33.1164 168.818 32.9405C168.636 32.9229 168.461 32.8994 168.297 32.8818C168.297 35.1048 167.239 37.5096 166.228 39.4041C165.62 40.542 164.427 41.5215 164.229 42.6652V42.6594Z" fill="#B7B0B4"/>
<path id="Vector_10" d="M163.755 27.21C164.129 27.0751 164.579 26.9285 165.047 26.7819C166.134 26.4358 167.49 26.0018 168.069 25.6147C169.291 24.8111 170.367 21.8902 171.016 17.5967C171.565 13.9895 171.735 9.91898 171.618 7.76052C171.559 6.68716 171.384 3.42603 170.489 3.01545C170.285 2.9216 169.431 2.76324 167.029 4.64602L167.011 4.66362C166.982 4.69294 166.947 4.72227 166.912 4.74573C166.812 4.82198 166.713 4.9041 166.619 4.98621C168.718 12.0422 167.894 19.1686 164.591 25.7027C164.228 26.4182 163.778 26.6118 163.755 27.21Z" fill="#B7B0B4"/>
</g>
</g>
</g>
</g>
</svg>
