<svg width="485" height="166" viewBox="0 0 485 166" fill="none" xmlns="http://www.w3.org/2000/svg">
<g id="Frame 16">
<g id="Group 1000003339">
<path id="Vector" d="M14.8483 165.768C10.6729 165.768 7.19891 162.013 6.72592 157.797C6.26924 152.642 11.1296 129.684 12.2876 124.299C9.04193 124.299 5.5516 123.821 3.23558 121.96C-0.711434 118.683 -1.16811 112.589 2.53425 108.834C3.9206 107.187 5.5516 105.326 7.63928 104.387C10.6566 103.449 13.9023 104.157 16.2183 106.495C17.148 101.11 24.7974 70.8888 26.4284 65.7339C29.935 52.5914 41.9881 5.25879 60.3205 5.25879C65.4255 5.25879 70.5306 8.76674 72.8466 13.4605C77.0219 21.6622 78.8813 31.0332 80.4959 40.4042C83.97 59.1462 85.3726 78.1353 86.9873 97.3384C89.5317 97.1078 91.864 97.7995 93.4787 99.677C98.5837 104.601 95.338 112.803 88.3737 113.495C89.075 123.805 89.5317 134.114 91.1627 144.193C94.6367 147.701 94.6367 155.211 91.6194 158.95C89.76 161.058 87.444 161.997 85.128 161.997C82.1106 161.997 79.3216 160.597 77.7069 157.781C73.9883 151.456 72.8303 123.343 72.1452 115.833C57.9882 118.172 43.6028 120.527 29.2174 122.388C26.4284 134.575 23.884 146.516 22.9543 158.703C22.4977 162.688 18.779 165.735 14.832 165.735L14.8483 165.768ZM33.1807 105.31C45.7068 103.432 58.4775 101.555 71.0035 99.4465C69.6172 82.582 67.9862 65.701 65.4418 49.067C64.2838 40.4042 63.1258 31.7249 59.8801 23.7538C54.0738 31.0167 51.3011 40.1571 48.2837 49.067C42.2491 67.5785 37.617 86.551 33.197 105.31H33.1807Z" fill="#F38D68"/>
<path id="Vector_2" d="M122.511 151.473C119.493 151.473 116.476 149.826 114.617 147.026C110.898 141.871 111.371 121.482 111.371 115.158C111.371 96.6464 111.599 78.1349 112.072 59.6235C112.301 52.3605 112.774 19.0926 114.617 12.2908C115.318 8.78287 119.265 6.6748 122.511 6.6748C127.844 6.6748 132.264 11.8297 130.176 17.4457C129.475 20.0314 129.475 22.8311 129.475 25.4168C128.774 41.112 126.458 120.543 128.317 136.255C132.721 139.302 132.965 145.626 128.774 149.15C126.914 150.797 124.827 151.489 122.511 151.489V151.473Z" fill="#F38D68"/>
<path id="Vector_3" d="M171.928 143.963C160.56 135.761 159.158 102.016 158.929 89.3672C155.684 89.5978 151.965 89.8449 148.719 88.9061C146.632 88.445 144.772 86.798 144.071 84.9205C141.282 79.0575 145.457 72.9639 151.264 72.9639C153.808 72.9639 156.14 72.9639 158.685 72.7333C158.685 63.8234 160.071 22.8314 162.159 14.1521C163.317 10.3972 166.334 8.53613 169.824 8.53613C175.631 8.53613 177.947 12.5217 178.403 17.6766C178.632 19.7846 178.632 22.3703 177.474 24.2313C177.474 24.4619 177.001 24.9395 177.001 24.9395C175.37 39.943 175.141 55.1606 174.913 70.1641C177.93 69.703 190.228 67.5784 193.017 68.2866C202.069 69.6865 202.069 83.5207 192.789 84.4594C186.982 84.9205 180.948 85.8593 175.158 86.798C175.386 97.5689 176.087 120.544 181.421 130.145C184.666 127.806 187.455 124.513 190.244 121.713C191.402 120.313 193.963 119.605 195.822 119.605C201.857 119.605 205.804 126.407 202.787 131.792C199.541 136.947 189.331 145.61 183.296 147.026C179.349 147.734 174.946 146.565 171.928 143.979V143.963Z" fill="#F38D68"/>
<path id="Vector_4" d="M229.472 139.499C225.753 139.499 222.279 136.881 220.42 132.945C217.631 126.653 216.946 119.045 216.244 111.963C214.858 93.5995 215.086 75.5163 215.086 57.4166C215.315 51.1253 216.016 17.8245 216.717 11.7968C217.419 6.29602 221.366 3.15039 225.769 3.15039C228.085 3.15039 230.646 4.20442 232.505 6.29602C235.294 9.44165 235.05 15.2059 232.505 18.615C231.119 43.78 230.874 68.9615 231.576 94.1266C236.452 80.49 246.662 64.2349 261.048 64.2349C276.363 64.2349 282.169 81.5441 283.327 96.2182C284.029 105.919 283.8 115.882 283.099 125.583C282.871 127.411 281.941 129.255 280.783 130.82C279.152 132.648 277.064 133.439 274.977 133.439C270.573 133.439 266.397 129.503 266.854 123.738C267.555 115.602 267.555 107.747 267.311 99.8743C267.083 95.4112 266.381 90.9645 264.75 86.7648C264.294 85.1838 262.663 82.3016 261.276 82.3016C257.802 82.3016 253.61 87.2754 251.767 90.1739C247.82 96.4652 245.504 103.81 243.645 111.156C242.259 116.657 239.47 133.439 235.294 136.848C234.838 137.111 234.365 137.638 233.908 137.902C232.522 138.956 230.891 139.483 229.504 139.483L229.472 139.499Z" fill="#F38D68"/>
<path id="Vector_5" d="M326.467 135.3C315.8 135.3 306.748 129.519 300.24 120.082C293.977 111.156 290.487 98.0297 292.819 87.0118C295.836 70.7402 308.363 54.4685 323.906 54.4685C333.659 54.4685 342.467 60.5127 345.256 72.3212C346.185 75.9939 345.729 80.1935 344.799 83.8662C343.413 88.3293 340.624 92.2655 337.606 95.4111C332.958 100.928 328.554 103.02 322.063 103.02C317.888 103.02 313.712 102.229 309.537 101.175C312.081 109.575 318.116 116.92 326.238 116.92C327.625 116.92 329.027 116.656 330.185 116.393C332.73 115.866 335.062 114.038 337.606 112.72C339.237 111.666 341.08 111.666 342.711 112.193C348.518 114.038 350.605 121.91 346.887 126.884C344.571 130.029 335.046 134.229 331.572 134.756C329.941 135.02 328.326 135.283 326.467 135.283V135.3ZM314.169 34.0796C311.853 34.0796 309.537 33.1408 307.678 31.2633C304.889 28.4471 304.889 23.5228 307.678 20.4925C312.554 15.3376 326.94 0.103516 334.361 0.103516C339.694 0.103516 344.114 5.25839 342.026 11.1214C340.64 14.6294 336.693 16.2763 333.676 18.3844C328.342 22.1394 323.922 27.2943 319.062 31.9715C317.676 33.3714 316.045 34.0796 314.185 34.0796H314.169ZM323.922 84.6402C325.782 83.5862 326.94 81.7581 328.098 79.9135C328.799 79.123 329.729 77.2949 329.484 76.2409C328.783 73.6223 326.695 72.8318 324.379 72.8318C318.801 72.8318 313.941 77.5584 311.38 82.8121C314.397 83.6027 317.415 84.1297 320.432 84.6567C321.133 84.6567 323.221 84.9202 323.906 84.6567L323.922 84.6402Z" fill="#F38D68"/>
<g id="Group">
<path id="Vector_6" d="M376.587 135.3C370.553 135.3 364.29 131.084 361.044 126.16C356.869 119.605 356.64 110.695 357.57 102.971C358.271 94.7694 361.289 86.5677 365.692 79.7823C372.657 68.5338 387.743 50.5 402.357 50.5C405.374 50.5 408.392 51.2082 410.936 53.0857C412.567 51.9164 414.182 51.4387 416.041 51.4387C420.445 51.4387 424.392 55.1937 424.392 60.5792C424.164 74.6439 423.234 89.1698 426.708 102.757C427.638 106.034 429.024 109.542 430.182 112.836C432.27 118.699 428.094 124.085 422.761 124.085C421.603 124.085 420.445 123.854 419.287 123.146C417.656 122.438 416.27 121.268 415.568 119.869C413.252 114.714 411.621 109.328 410.463 103.696C404.2 116.591 392.587 135.333 376.587 135.333V135.3ZM381.236 117.019C393.99 106.479 400.726 85.6289 404.901 70.1643C403.743 68.995 402.585 66.4093 401.183 66.8869C393.289 68.995 382.149 83.7514 378.218 90.3227C374.973 96.4163 373.113 103.679 373.342 110.481C373.342 112.82 373.815 117.744 375.902 118.913C377.289 119.621 379.849 117.975 381.236 117.036V117.019Z" fill="#F38D68"/>
<g id="Group_2">
<path id="Vector_7" d="M426.431 87.539C427.573 94.6207 431.879 102.592 437.962 108.867C444.144 115.257 451.483 119.242 458.203 119.885C458.741 116.673 462.068 113.923 463.781 110.728C466.619 105.408 469.555 98.6557 469.555 92.4139C469.538 92.4139 469.506 92.4139 469.489 92.4139C469.375 92.4139 469.196 92.4139 469 92.3809C467.679 92.2162 463.993 92.1339 460.421 92.0515C447.993 91.788 445.579 91.541 444.225 90.454C441.795 88.4777 441.616 86.452 441.877 85.1015C442.692 81.0171 448.466 79.0079 454.827 77.1633C455.544 76.9492 456.229 76.7516 456.507 76.6528C456.637 76.6034 456.751 76.554 456.882 76.5046C456.947 74.8247 458.203 74.2812 459.214 72.272C468.429 53.9417 470.729 33.9151 464.874 14.1025C456.066 21.4314 445.66 34.3597 438.125 47.3869C428.959 63.2468 424.816 77.4927 426.447 87.539H426.431Z" fill="#FDDF88"/>
<g id="Group_3">
<path id="Vector_8" d="M420.934 88.4454C422.272 96.7294 427.018 105.606 433.966 112.787C441.338 120.412 449.982 124.941 458.284 125.518C459.393 125.6 460.551 125.518 461.726 125.337C467.01 124.447 472.702 120.791 477.497 115.076C481.983 109.74 486.223 101.67 484.674 95.066C483.875 91.6569 481.754 89.7629 479.259 88.6595C476.763 87.556 473.893 87.2266 471.609 86.9796C471.071 86.9137 470.549 86.8643 470.06 86.7984C469.848 86.7655 469.652 86.7655 469.538 86.7655C467.874 86.5679 464.466 86.502 460.519 86.4197C456.506 86.3373 450.08 86.2056 447.781 85.8597C448.743 85.1515 451.075 84.0645 456.343 82.5329C457.273 82.2694 457.942 82.0718 458.415 81.8906C459.41 81.5283 460.747 81.0836 462.166 80.6225C465.705 79.4861 469.701 78.185 471.952 76.6863C476.878 73.4089 480.466 64.5485 482.619 50.3355C484.282 39.3505 484.69 27.7232 484.364 21.5637C483.94 13.6914 483.108 5.80264 477.954 3.43107C474.154 1.68533 469.391 3.31578 462.541 8.7177C462.443 8.80005 462.329 8.88239 462.248 8.98121L462.199 9.03062C452.576 16.7218 441.501 30.3418 433.297 44.5548C423.495 61.5346 419.091 77.1145 420.918 88.4454H420.934ZM426.431 87.5396C424.8 77.5098 428.959 63.2474 438.109 47.3875C445.628 34.3603 456.033 21.432 464.857 14.1031C465.134 13.8726 465.412 13.642 465.673 13.4279C465.77 13.3456 465.852 13.2797 465.95 13.1973L465.999 13.1479C472.702 7.8613 475.083 8.30597 475.654 8.56948C478.166 9.72233 478.639 18.8792 478.802 21.8931C479.128 27.9538 478.655 39.3835 477.122 49.512C475.295 61.5511 472.294 69.7692 468.902 72.0255C467.287 73.096 463.503 74.3148 460.47 75.3029C459.149 75.7311 457.909 76.1264 456.865 76.5052C456.735 76.5546 456.604 76.604 456.49 76.6534C456.213 76.7522 455.528 76.9498 454.81 77.1639C448.449 79.0085 442.676 81.0177 441.86 85.1021C441.583 86.4526 441.778 88.4783 444.209 90.4546C445.562 91.5581 447.976 91.7886 460.404 92.0521C463.976 92.1345 467.679 92.2004 468.984 92.3815C469.196 92.4145 469.359 92.4145 469.473 92.4145C469.489 92.4145 469.522 92.4145 469.538 92.4145C470.011 92.4803 470.5 92.5297 470.99 92.5792C475.41 93.0732 478.606 93.6332 479.259 96.3836C479.291 96.5153 479.308 96.6471 479.34 96.7788C479.96 100.517 477.563 106.331 473.257 111.453C468.608 116.987 463.03 120.231 458.676 119.918C458.513 119.918 458.349 119.885 458.186 119.869C451.467 119.226 444.127 115.241 437.946 108.851C431.878 102.576 427.572 94.6049 426.414 87.5231L426.431 87.5396Z" fill="#F38D68"/>
<path id="Vector_9" d="M458.187 119.869C458.35 119.869 458.513 119.902 458.676 119.919C463.014 120.232 468.609 116.987 473.257 111.454C477.563 106.332 479.96 100.518 479.341 96.7794C479.324 96.6476 479.292 96.5159 479.259 96.3841C478.607 93.6338 475.426 93.0738 470.99 92.5797C470.484 92.5303 469.995 92.4644 469.538 92.415C469.538 98.6569 466.586 105.409 463.765 110.729C462.068 113.924 458.741 116.674 458.187 119.886V119.869Z" fill="#B0CEFF"/>
<path id="Vector_10" d="M456.865 76.5047C457.909 76.1259 459.165 75.7142 460.47 75.3025C463.503 74.3308 467.287 73.112 468.902 72.0251C472.311 69.7688 475.312 61.5671 477.122 49.5116C478.655 39.383 479.128 27.9534 478.802 21.8927C478.639 18.8788 478.15 9.72189 475.654 8.56904C475.084 8.30554 472.702 7.86087 465.999 13.1475L465.95 13.1969C465.868 13.2793 465.771 13.3616 465.673 13.4275C465.395 13.6416 465.118 13.8721 464.857 14.1027C470.712 33.9152 468.413 53.9254 459.198 72.2721C458.186 74.2814 456.93 74.8249 456.865 76.5047Z" fill="#B0CEFF"/>
</g>
</g>
</g>
</g>
</g>
</svg>
