<svg width="51" height="50" viewBox="0 0 51 50" fill="none" xmlns="http://www.w3.org/2000/svg">
<path d="M43.9653 3.125H7.45264C5.45752 3.125 3.71436 4.56055 3.71436 6.53223V43.126C3.71436 45.1084 5.45752 46.875 7.45264 46.875H43.9546C45.9604 46.875 47.4644 45.0967 47.4644 43.126V6.53223C47.4761 4.56055 45.9604 3.125 43.9653 3.125ZM17.2759 39.5928H11.0083V20.1055H17.2759V39.5928ZM14.3589 17.1426H14.314C12.3081 17.1426 11.0093 15.6494 11.0093 13.7803C11.0093 11.877 12.3423 10.4189 14.3931 10.4189C16.4438 10.4189 17.6987 11.8662 17.7437 13.7803C17.7427 15.6494 16.4438 17.1426 14.3589 17.1426ZM40.1821 39.5928H33.9146V28.9375C33.9146 26.3848 33.0024 24.6406 30.7349 24.6406C29.0024 24.6406 27.9771 25.8125 27.521 26.9541C27.3501 27.3643 27.3042 27.9228 27.3042 28.4932V39.5928H21.0366V20.1055H27.3042V22.8174C28.2163 21.5186 29.6411 19.6494 32.9565 19.6494C37.0708 19.6494 40.1831 22.3613 40.1831 28.208L40.1821 39.5928Z" fill="#FFFBFA"/>
</svg>
