<svg width="44" height="46" viewBox="0 0 44 46" fill="none" xmlns="http://www.w3.org/2000/svg">
<g id="Mode_Isolation" clip-path="url(#clip0_3648_1154)">
<path id="Vector" d="M31.9174 9.0219C31.4257 9.0219 30.945 9.16914 30.5361 9.445C30.1273 9.72086 29.8086 10.1129 29.6204 10.5717C29.4322 11.0304 29.383 11.5352 29.4789 12.0222C29.5749 12.5092 29.8117 12.9565 30.1594 13.3076C30.5071 13.6587 30.9501 13.8978 31.4324 13.9947C31.9147 14.0916 32.4146 14.0419 32.8689 13.8519C33.3232 13.6618 33.7115 13.3401 33.9847 12.9272C34.2579 12.5143 34.4037 12.029 34.4037 11.5324C34.4037 10.8666 34.1417 10.228 33.6755 9.75721C33.2092 9.2864 32.5768 9.0219 31.9174 9.0219ZM41.4481 14.0848C41.4078 12.349 41.0858 10.6316 40.495 9.00098C39.9682 7.60582 39.1483 6.34249 38.0916 5.29794C37.0657 4.22558 35.8117 3.40286 34.4244 2.89202C32.8138 2.27728 31.1112 1.94473 29.3897 1.90873C27.1935 1.7832 26.4891 1.7832 20.8536 1.7832C15.2181 1.7832 14.5136 1.7832 12.3174 1.90873C10.596 1.94473 8.89332 2.27728 7.28276 2.89202C5.89807 3.40804 4.64511 4.23005 3.61553 5.29794C2.55353 6.33391 1.73877 7.60018 1.23286 9.00098C0.624063 10.6273 0.294736 12.3466 0.259078 14.0848C0.134766 16.3024 0.134766 17.0137 0.134766 22.7043C0.134766 28.3948 0.134766 29.1061 0.259078 31.3238C0.294736 33.062 0.624063 34.7813 1.23286 36.4076C1.73877 37.8084 2.55353 39.0747 3.61553 40.1106C4.64511 41.1785 5.89807 42.0005 7.28276 42.5165C8.89332 43.1313 10.596 43.4638 12.3174 43.4998C14.5136 43.6254 15.2181 43.6254 20.8536 43.6254C26.4891 43.6254 27.1935 43.6254 29.3897 43.4998C31.1112 43.4638 32.8138 43.1313 34.4244 42.5165C35.8117 42.0057 37.0657 41.183 38.0916 40.1106C39.1529 39.07 39.9736 37.8055 40.495 36.4076C41.0858 34.777 41.4078 33.0596 41.4481 31.3238C41.4481 29.1061 41.5724 28.3948 41.5724 22.7043C41.5724 17.0137 41.5724 16.3024 41.4481 14.0848ZM37.7187 31.0727C37.7036 32.4007 37.4654 33.7165 37.0143 34.964C36.6834 35.8745 36.1521 36.6972 35.4603 37.37C34.7883 38.0614 33.9753 38.5968 33.0777 38.939C31.8422 39.3946 30.5392 39.6351 29.224 39.6504C27.1521 39.755 26.3855 39.7759 20.9365 39.7759C15.4874 39.7759 14.7208 39.7759 12.6489 39.6504C11.2833 39.6762 9.92357 39.4638 8.62948 39.0227C7.77127 38.663 6.9955 38.1289 6.35041 37.4536C5.66273 36.7816 5.13803 35.9582 4.81722 35.0477C4.31138 33.7823 4.03082 32.4366 3.98847 31.0727C3.98847 28.9806 3.86415 28.2065 3.86415 22.7043C3.86415 17.202 3.86415 16.428 3.98847 14.3359C3.99775 12.9782 4.2432 11.6327 4.71362 10.3608C5.07837 9.47779 5.63823 8.69063 6.35041 8.05953C6.97988 7.34019 7.75781 6.7689 8.62948 6.38584C9.8924 5.92567 11.2235 5.68515 12.5661 5.67452C14.6379 5.67452 15.4045 5.549 20.8536 5.549C26.3026 5.549 27.0692 5.549 29.1411 5.67452C30.4563 5.68976 31.7593 5.93028 32.9948 6.38584C33.9363 6.73868 34.7814 7.31232 35.4603 8.05953C36.1393 8.70218 36.6698 9.48788 37.0143 10.3608C37.4747 11.6348 37.7131 12.9797 37.7187 14.3359C37.8223 16.428 37.843 17.202 37.843 22.7043C37.843 28.2065 37.8223 28.9806 37.7187 31.0727ZM20.8536 11.9718C18.7523 11.9759 16.6994 12.6089 14.9542 13.7907C13.2091 14.9725 11.85 16.6501 11.0487 18.6116C10.2474 20.5731 10.0399 22.7304 10.4523 24.8109C10.8648 26.8914 11.8787 28.8018 13.366 30.3007C14.8532 31.7996 16.7471 32.8197 18.8083 33.2321C20.8696 33.6445 23.0056 33.4307 24.9465 32.6178C26.8875 31.8049 28.5462 30.4293 29.7132 28.6648C30.8802 26.9003 31.503 24.8261 31.503 22.7043C31.5058 21.2923 31.2321 19.8938 30.6976 18.589C30.1631 17.2843 29.3785 16.0991 28.3887 15.1017C27.399 14.1042 26.2238 13.3142 24.9306 12.7771C23.6375 12.2399 22.2519 11.9663 20.8536 11.9718ZM20.8536 29.671C19.489 29.671 18.1551 29.2624 17.0205 28.4969C15.8859 27.7314 15.0016 26.6433 14.4794 25.3703C13.9572 24.0973 13.8206 22.6966 14.0868 21.3451C14.353 19.9937 15.0101 18.7524 15.975 17.7781C16.9399 16.8038 18.1692 16.1402 19.5076 15.8714C20.8459 15.6026 22.2332 15.7406 23.4939 16.2679C24.7545 16.7952 25.8321 17.6881 26.5902 18.8338C27.3483 19.9795 27.7529 21.3264 27.7529 22.7043C27.7529 23.6192 27.5745 24.5251 27.2278 25.3703C26.881 26.2156 26.3728 26.9836 25.7322 27.6305C25.0915 28.2774 24.3309 28.7906 23.4939 29.1407C22.6568 29.4908 21.7596 29.671 20.8536 29.671Z" fill="#FFFBFA"/>
</g>
<defs>
<clipPath id="clip0_3648_1154">
<rect width="42.9862" height="45.4092" fill="white" transform="translate(0.166992)"/>
</clipPath>
</defs>
</svg>
