<svg width="44" height="46" viewBox="0 0 44 46" fill="none" xmlns="http://www.w3.org/2000/svg">
<g id="Mode_Isolation">
<path id="Vector" d="M33.2703 7.00883C31.5871 5.08661 30.6594 2.61848 30.6596 0.0634766H23.0493V30.6033C22.9918 32.2564 22.2944 33.8225 21.1043 34.9713C19.9142 36.12 18.3244 36.7615 16.6704 36.7605C13.173 36.7605 10.2668 33.9036 10.2668 30.357C10.2668 26.1209 14.3552 22.9437 18.5668 24.2491V16.4663C10.0698 15.3334 2.63184 21.9339 2.63184 30.357C2.63184 38.5585 9.42944 44.3955 16.6457 44.3955C24.3792 44.3955 30.6596 38.1151 30.6596 30.357V14.8654C33.7456 17.0817 37.4507 18.2708 41.2501 18.2642V10.6539C41.2501 10.6539 36.6198 10.8756 33.2703 7.00883Z" fill="#FFFBFA"/>
</g>
</svg>
