<svg width="44" height="46" viewBox="0 0 44 46" fill="none" xmlns="http://www.w3.org/2000/svg">
<g id="Mode_Isolation" clip-path="url(#clip0_3648_1158)">
<path id="Vector" d="M18.9168 29.2944L29.6256 23.1044L18.9168 16.9145V29.2944ZM42.769 13.1386C43.0373 14.1083 43.223 15.4082 43.3468 17.0589C43.4912 18.7095 43.5531 20.1332 43.5531 21.3712L43.6769 23.1044C43.6769 27.6231 43.3468 30.9451 42.769 33.0703C42.2532 34.9273 41.0564 36.1241 39.1994 36.6399C38.2297 36.9081 36.4552 37.0938 33.7316 37.2176C31.0493 37.3621 28.5939 37.424 26.3242 37.424L23.0435 37.5478C14.3981 37.5478 9.01283 37.2176 6.8876 36.6399C5.03059 36.1241 3.83386 34.9273 3.31802 33.0703C3.04979 32.1006 2.86409 30.8007 2.74029 29.15C2.59586 27.4993 2.53396 26.0756 2.53396 24.8376L2.41016 23.1044C2.41016 18.5858 2.74029 15.2638 3.31802 13.1386C3.83386 11.2816 5.03059 10.0848 6.8876 9.569C7.85737 9.30077 9.63183 9.11507 12.3554 8.99127C15.0378 8.84683 17.4931 8.78493 19.7628 8.78493L23.0435 8.66113C31.6889 8.66113 37.0742 8.99127 39.1994 9.569C41.0564 10.0848 42.2532 11.2816 42.769 13.1386Z" fill="#FFFBFA"/>
</g>
<defs>
<clipPath id="clip0_3648_1158">
<rect width="42.9862" height="45.4092" fill="white" transform="translate(0.722656)"/>
</clipPath>
</defs>
</svg>
