<svg width="134" height="135" viewBox="0 0 134 135" fill="none" xmlns="http://www.w3.org/2000/svg">
<path d="M72.5921 114.473C72.2512 113.508 71.8826 112.515 71.514 111.522C70.5373 108.892 69.533 106.17 68.7682 103.532C68.3351 101.849 67.9573 100.157 67.644 98.4563C66.354 91.634 65.9302 84.7015 65.8565 77.7965C65.8012 73.0706 65.9025 68.363 66.0131 63.7107C66.0592 61.6787 66.1145 59.6467 66.1421 57.624C66.1421 53.5876 63.2028 51.1511 60.3555 51.1511C58.9365 51.1511 57.8492 51.4913 56.7251 52.3004L54.8362 53.652L52.9472 52.282C51.003 50.8661 48.5244 50.1489 45.585 50.1489C31.2107 50.1489 15.6754 68.8319 8.76473 79.8652C4.08387 86.9909 1.15373 95.2382 0.481085 103.164L0.462656 103.283C-0.725987 113.075 0.379727 120.679 3.73373 125.883C6.46116 129.975 12.1832 134.149 17.7947 134.149C32.6297 134.149 44.2858 116.79 51.4545 102.226L55.5917 93.8131L57.5083 102.989C58.7891 109.122 60.503 114.519 62.7605 119.484C63.1475 120.219 64.0505 120.955 65.1285 121.424L65.5155 121.617C66.1421 121.994 66.7963 122.159 67.6164 122.159C69.3487 122.159 70.9796 121.304 71.9932 119.87C72.6198 118.978 73.5412 117.084 72.5921 114.473ZM51.4545 68.7676C46.5525 86.6783 39.1074 108.726 24.8437 120.376L24.5949 120.56C23.1482 121.516 20.5037 123.281 17.8777 123.281C17.1037 123.281 16.3389 123.125 15.6017 122.757L15.4819 122.693C11.5198 120.504 11.0683 113.793 11.0591 110.942C10.8103 103.283 12.8098 95.0911 16.7074 87.8735L16.7904 87.7356C20.4208 81.7593 33.0905 64.1336 43.4289 61.3293C46.6355 60.3455 48.7087 63.1222 49.8144 64.6301C50.1 65.0071 50.4225 65.4392 50.616 65.6415L51.9429 66.9655L51.4545 68.7676Z" fill="#F38D68"/>
<path d="M70.3292 91.028C71.5704 98.6237 76.2389 107.192 82.8249 113.935C89.522 120.79 97.4882 125.079 104.769 125.773C105.362 122.318 108.965 119.373 110.808 115.936C113.884 110.221 117.07 102.977 117.079 96.2616C117.052 96.2616 117.033 96.2616 117.005 96.2616C116.876 96.2616 116.69 96.2616 116.468 96.2338C115.042 96.0486 111.031 95.9744 107.159 95.8911C93.6904 95.6039 91.0597 95.3538 89.5961 94.1682C86.9654 92.047 86.7617 89.8702 87.0581 88.4159C87.9473 84.016 94.2091 81.8762 101.101 79.8847C101.879 79.6624 102.62 79.4493 102.916 79.3382C103.055 79.2918 103.185 79.2363 103.333 79.1899C103.407 77.3837 104.76 76.8094 105.862 74.6511C115.866 54.958 118.358 33.4587 112.003 12.1724C102.444 20.0366 91.1523 33.9218 82.9916 47.9274C73.0617 64.962 68.5599 80.2737 70.3199 91.0466L70.3292 91.028Z" fill="#FDDF88"/>
<path d="M133.503 99.133C132.632 95.4742 130.325 93.4363 127.621 92.2507C124.916 91.0557 121.813 90.713 119.33 90.4444C118.747 90.3795 118.182 90.3147 117.654 90.2499C117.413 90.2128 117.218 90.2128 117.079 90.2128C115.292 90.009 111.577 89.9256 107.298 89.8423C102.953 89.7496 95.9783 89.6014 93.4866 89.2402C94.5333 88.4806 97.0528 87.3228 102.777 85.6739C103.787 85.3775 104.519 85.1737 105.028 84.9792C106.112 84.5809 107.557 84.1178 109.095 83.6268C112.93 82.3949 117.274 81.0147 119.719 79.4029C125.064 75.8923 128.964 66.3606 131.298 51.0953C133.104 39.285 133.54 26.7985 133.188 20.194C132.734 11.7277 131.817 3.2613 126.24 0.723248C122.118 -1.15714 116.959 0.593568 109.521 6.39219C109.41 6.48482 109.298 6.56819 109.197 6.67008L109.141 6.7164C98.7109 14.9697 86.6968 29.5959 77.7951 44.8613C75.3126 49.1223 73.1451 53.2906 71.3203 57.3478C70.0327 60.1823 68.9119 62.9611 67.9578 65.6659C66.3646 70.2141 65.2253 74.5491 64.5861 78.6156C63.7988 83.4971 63.7247 87.9989 64.3731 92.0006C64.7714 94.446 65.4476 96.9377 66.3831 99.4295C68.0597 103.922 70.5515 108.405 73.7287 112.583C75.0996 114.417 76.6187 116.186 78.249 117.872C78.3324 117.965 78.4157 118.057 78.5083 118.15C86.5116 126.338 95.8764 131.201 104.889 131.831C106.103 131.924 107.353 131.85 108.622 131.637C114.356 130.683 120.516 126.755 125.722 120.623C130.594 114.889 135.198 106.228 133.503 99.133ZM121.127 116.714C116.079 122.661 110.021 126.144 105.315 125.81C105.139 125.81 104.954 125.783 104.778 125.764C97.4974 125.079 89.5313 120.79 82.8342 113.935C82.4359 113.528 82.0468 113.12 81.6763 112.703L81.5929 112.62C81.2039 112.194 80.8241 111.758 80.4536 111.323C79.7681 110.526 79.1197 109.711 78.4898 108.878C78.3324 108.665 78.1656 108.442 78.0082 108.22C77.7395 107.859 77.4802 107.488 77.2301 107.127C76.9151 106.664 76.6002 106.201 76.3038 105.728C76.0166 105.293 75.748 104.848 75.4794 104.394C75.4238 104.302 75.3682 104.2 75.3034 104.098C75.0533 103.672 74.8032 103.237 74.5716 102.801C74.303 102.31 74.0436 101.819 73.8028 101.319C73.6731 101.069 73.5527 100.828 73.4415 100.578C73.3026 100.309 73.1821 100.041 73.0617 99.7722C73.0617 99.7629 73.0525 99.7629 73.0525 99.7537C72.3948 98.2808 71.8205 96.808 71.3666 95.3445C71.2554 94.9832 71.1443 94.622 71.0424 94.2607V94.2422C70.9405 93.8902 70.8571 93.5382 70.7645 93.1862V93.1677C70.6811 92.8435 70.607 92.51 70.5422 92.1858C70.4681 91.7968 70.394 91.4077 70.3292 91.0279C70.0791 89.4995 69.9586 87.8785 69.9586 86.1741C69.9586 85.8036 69.9679 85.4331 69.9772 85.0626C69.9864 84.7754 69.9957 84.4975 70.0142 84.2104C70.0235 83.9232 70.042 83.6361 70.0698 83.3397C70.1439 82.2744 70.2643 81.1907 70.431 80.0698C70.5329 79.3659 70.6534 78.6434 70.8016 77.9116C70.8757 77.504 70.959 77.0872 71.0517 76.6703V76.6518C71.0702 76.5592 71.0887 76.4758 71.1165 76.3832C71.2091 75.9386 71.311 75.4939 71.4222 75.0401C71.5519 74.5028 71.6908 73.9563 71.839 73.4005C71.9502 72.9744 72.0706 72.5391 72.2003 72.1037C72.2929 71.7702 72.3948 71.4275 72.5059 71.0848C72.6264 70.6772 72.7561 70.2789 72.8857 69.8621C73.0525 69.3526 73.2192 68.8431 73.4045 68.3244C73.599 67.7408 73.812 67.1573 74.0251 66.5737C74.4419 65.4529 74.8865 64.3135 75.3682 63.1557C75.8777 61.9052 76.4335 60.6361 77.0263 59.3486C77.3042 58.7465 77.5913 58.1351 77.8877 57.5145C77.9248 57.4404 77.9526 57.3663 77.9896 57.2922C78.2582 56.7364 78.5361 56.1714 78.8233 55.6064C79.1382 54.9765 79.4624 54.3466 79.7959 53.7074C80.0553 53.2072 80.3146 52.707 80.5925 52.2068C80.8704 51.6881 81.1576 51.1601 81.454 50.6321C81.667 50.2338 81.8986 49.8263 82.1302 49.4187C82.4173 48.9185 82.7045 48.4183 83.0009 47.9088C91.1708 33.9032 102.453 20.018 112.013 12.1538C112.318 11.9037 112.615 11.6628 112.911 11.4312C113.013 11.3479 113.115 11.2645 113.207 11.1811L113.263 11.1348C120.534 5.45662 123.119 5.92904 123.739 6.21619C126.453 7.44816 126.981 17.2854 127.157 20.5182C127.509 27.0208 126.991 39.3035 125.323 50.1783C123.35 63.1186 120.099 71.937 116.403 74.3639C114.643 75.5125 110.549 76.8185 107.261 77.8745C105.834 78.3284 104.472 78.7638 103.342 79.1713C103.194 79.2269 103.064 79.2732 102.926 79.3195C102.629 79.4307 101.888 79.6438 101.11 79.8753C94.2091 81.8576 87.9473 84.0066 87.0581 88.3973C86.7709 89.8515 86.9747 92.0376 89.6054 94.1496C91.0689 95.3352 93.6996 95.5946 107.168 95.8817C111.049 95.9558 115.06 96.0392 116.477 96.2245C116.7 96.2523 116.885 96.2523 117.015 96.2523C117.042 96.2523 117.061 96.2615 117.089 96.2615C117.598 96.3264 118.126 96.3819 118.673 96.4468C123.471 96.9748 126.926 97.5769 127.63 100.532C127.667 100.671 127.695 100.819 127.713 100.958C128.389 104.969 125.796 111.221 121.127 116.714Z" fill="#F38D68"/>
<path d="M104.769 125.764C104.945 125.782 105.13 125.792 105.306 125.81C110.021 126.144 116.079 122.661 121.118 116.714C125.786 111.212 128.38 104.968 127.713 100.958C127.685 100.809 127.658 100.67 127.63 100.522C126.926 97.5673 123.471 96.9652 118.673 96.4372C118.126 96.3724 117.598 96.3168 117.089 96.252C117.089 102.968 113.893 110.221 110.818 115.927C108.974 119.363 105.362 122.309 104.778 125.764H104.769Z" fill="#C7CFFF"/>
<path d="M103.333 79.1709C104.463 78.7633 105.825 78.328 107.251 77.8741C110.54 76.8274 114.643 75.512 116.394 74.3634C120.08 71.9365 123.341 63.1182 125.314 50.1871C126.981 39.3123 127.5 27.0296 127.148 20.527C126.972 17.2942 126.444 7.45698 123.73 6.22501C123.109 5.94712 120.525 5.46544 113.254 11.1436L113.198 11.19C113.105 11.2733 113.004 11.3659 112.902 11.4401C112.605 11.6716 112.309 11.9125 112.012 12.1626C118.358 33.4396 115.866 54.9482 105.871 74.6413C104.769 76.7996 103.416 77.3831 103.342 79.1802L103.333 79.1709Z" fill="#C7CFFF"/>
</svg>
