<svg width="122" height="154" viewBox="0 0 122 154" fill="none" xmlns="http://www.w3.org/2000/svg">
<g clip-path="url(#clip0_3793_2)">
<path d="M115.117 3.53313C107.471 -2.26553 96.5737 -0.764593 90.7713 6.88926L84.2331 15.5313L111.932 36.5351L118.47 27.8931C124.263 20.2392 122.764 9.33178 115.117 3.5238V3.53313ZM105.925 44.4593L78.2257 23.4555L9.5373 114.202C6.04467 118.807 3.76282 124.214 2.87802 129.929L0.0559677 148.276C-0.363148 150.989 1.49959 153.524 4.20987 153.944C5.15987 154.093 6.13781 153.953 7.02261 153.552L23.9083 145.871C29.1706 143.475 33.7436 139.811 37.2362 135.206L105.934 44.4687L105.925 44.4593Z" fill="#FFFBFA"/>
<path d="M85.2389 119.665C85.481 117.222 83.4414 115.283 81.0664 113.027L81.0291 112.99C80.9639 112.924 80.8987 112.878 80.8521 112.84C80.3492 112.374 79.3061 111.554 77.9928 110.519C76.5306 109.372 73.9228 107.321 73.1404 106.501C73.9041 106.501 75.4968 107.032 76.7914 107.527C77.136 107.657 77.4154 107.769 77.6296 107.834C78.0394 107.965 78.6169 108.16 79.2781 108.394C82.5938 109.54 85.2575 110.407 86.785 110.183C90.231 109.68 95.2232 105.187 98.8089 101.504C102.86 97.3369 106.735 92.5171 108.216 89.7949C108.998 88.3499 110.19 86.1778 109.576 84.1175C109.417 83.5954 109.156 83.12 108.803 82.7005C108.439 82.2809 107.983 81.9267 107.424 81.6284H107.405C105.859 80.808 101.426 80.9292 101.24 80.9292C95.4374 81.097 87.3624 83.0267 80.1629 85.9447C71.6595 89.3941 65.3914 93.7943 62.5135 98.3345C60.362 101.737 59.3189 106.492 59.6728 111.386C60.0267 116.308 61.7498 120.867 64.4042 123.897C65.2797 124.904 66.2855 125.696 67.3939 126.274C69.0051 127.123 70.8492 127.505 72.8331 127.412C76.2512 127.244 79.3433 125.715 81.3365 124.466C83.8418 122.89 85.0899 121.371 85.2575 119.674L85.2389 119.665Z" fill="#FFFBFA"/>
<path d="M11.1207 65.1275C13.2908 63.9902 15.8614 65.1648 18.8325 66.5259L18.879 66.5446C18.9628 66.5818 19.0374 66.6285 19.0839 66.6564C19.6986 66.9454 20.8535 67.6167 22.2971 68.4464C23.9084 69.3786 26.777 71.0381 27.8295 71.4576C27.5501 70.7491 26.4604 69.4625 25.5197 68.4557C25.2682 68.1853 25.0633 67.9616 24.9236 67.7938C24.6535 67.4582 24.253 67.0014 23.7966 66.47C21.4962 63.813 19.7079 61.6688 19.3447 60.1679C18.5251 56.7745 20.8349 50.4631 22.9118 45.7645C25.2682 40.4413 28.2858 35.0528 30.2604 32.6662C31.3035 31.3984 32.8775 29.4872 35.0196 29.2915C35.5691 29.2448 36.1 29.3008 36.6216 29.4872C37.1432 29.6644 37.6461 29.9627 38.1304 30.3636H38.149C39.4809 31.5102 41.0177 35.6681 41.0829 35.8452C43.0853 41.299 44.3147 49.5122 44.2868 57.2965C44.2588 66.4793 42.5172 73.9467 39.3784 78.3097C37.0314 81.5819 32.9986 84.3134 28.3324 85.8144C23.6383 87.3153 18.7673 87.4179 14.9766 86.0847C13.7192 85.6466 12.6109 85.0126 11.6609 84.2016C10.2732 83.0176 9.23004 81.4514 8.57808 79.5682C7.46044 76.3333 7.73054 72.8932 8.14034 70.5719C8.66191 67.6539 9.6119 65.9293 11.1207 65.1369V65.1275Z" fill="#FFFBFA"/>
</g>
<defs>
<clipPath id="clip0_3793_2">
<rect width="122" height="154" fill="white"/>
</clipPath>
</defs>
</svg>
