<svg width="77" height="96" viewBox="0 0 77 96" fill="none" xmlns="http://www.w3.org/2000/svg">
<g id="Calque_1" clip-path="url(#clip0_3648_346)">
<path id="Vector" d="M71.8319 2.20064C67.0607 -1.41411 60.2612 -0.478455 56.6407 4.29278L52.561 9.68003L69.8444 22.7733L73.924 17.3861C77.5388 12.6148 76.6031 5.81539 71.8319 2.19483V2.20064ZM66.096 27.7131L48.8126 14.6198L5.95285 71.1888C3.77354 74.0597 2.34972 77.4304 1.79763 80.9928L0.0367504 92.4298C-0.224767 94.121 0.937531 95.7017 2.62867 95.9632C3.22145 96.0562 3.83165 95.969 4.38375 95.7191L14.92 90.9305C18.2035 89.4369 21.0569 87.153 23.2362 84.2821L66.1018 27.7189L66.096 27.7131Z" fill="#2B2D3F"/>
<g id="Group">
<path id="Vector_2" d="M53.1892 74.594C53.3403 73.0714 52.0676 71.8626 50.5857 70.4562L50.5624 70.433C50.5217 70.3923 50.4811 70.3633 50.452 70.34C50.1382 70.0494 49.4873 69.538 48.6679 68.893C47.7555 68.1781 46.1282 66.8996 45.6401 66.3882C46.1166 66.3882 47.1104 66.7195 47.9182 67.0275C48.1332 67.1088 48.3076 67.1786 48.4412 67.2192C48.6969 67.3006 49.0572 67.4226 49.4699 67.5679C51.5387 68.2828 53.2008 68.8232 54.1539 68.6837C56.3042 68.3699 59.4191 65.5688 61.6565 63.2732C64.1845 60.6755 66.6021 57.671 67.5262 55.974C68.0143 55.0732 68.7582 53.7192 68.3746 52.4348C68.2758 52.1094 68.1131 51.813 67.8923 51.5515C67.6656 51.29 67.3809 51.0691 67.0322 50.8832H67.0206C66.0558 50.3717 63.2896 50.4473 63.1733 50.4473C59.5528 50.5519 54.5142 51.7549 50.0219 53.5739C44.7161 55.7241 40.8049 58.4671 39.0092 61.2973C37.6667 63.4185 37.0158 66.3824 37.2367 69.4334C37.4575 72.5019 38.5326 75.3437 40.1889 77.2324C40.7352 77.8601 41.3628 78.3541 42.0544 78.7144C43.0598 79.2432 44.2105 79.4815 45.4483 79.4234C47.5811 79.3188 49.5105 78.3657 50.7542 77.5869C52.3175 76.6048 53.0962 75.6575 53.2008 74.5998L53.1892 74.594Z" fill="#2B2D3F"/>
<path id="Vector_3" d="M6.94098 40.5971C8.29506 39.8881 9.89903 40.6204 11.7529 41.4689L11.782 41.4805C11.8343 41.5037 11.8807 41.5328 11.9098 41.5502C12.2934 41.7304 13.014 42.1488 13.9148 42.666C14.9202 43.2472 16.7101 44.2816 17.3668 44.5431C17.1924 44.1015 16.5125 43.2995 15.9255 42.6718C15.7686 42.5033 15.6408 42.3638 15.5536 42.2592C15.3851 42.05 15.1352 41.7652 14.8504 41.434C13.415 39.7777 12.2992 38.4411 12.0725 37.5054C11.5611 35.39 13.0024 31.4557 14.2983 28.5267C15.7686 25.2083 17.6516 21.8493 18.8836 20.3615C19.5345 19.5712 20.5166 18.3798 21.8533 18.2578C22.1961 18.2287 22.5274 18.2636 22.8528 18.3798C23.1783 18.4902 23.4921 18.6762 23.7943 18.9261H23.8059C24.637 19.6409 25.5959 22.2328 25.6365 22.3432C26.886 25.743 27.6531 30.8629 27.6357 35.7155C27.6183 41.4398 26.5315 46.0948 24.573 48.8146C23.1085 50.8544 20.5922 52.5572 17.6806 53.4928C14.7516 54.4285 11.7122 54.4924 9.34694 53.6614C8.56239 53.3882 7.87082 52.993 7.27805 52.4874C6.41214 51.7494 5.76125 50.773 5.35444 49.5991C4.65707 47.5825 4.8256 45.4381 5.0813 43.991C5.40675 42.172 5.99952 41.0969 6.94098 40.6029V40.5971Z" fill="#2B2D3F"/>
</g>
</g>
<defs>
<clipPath id="clip0_3648_346">
<rect width="76.1247" height="96" fill="white"/>
</clipPath>
</defs>
</svg>
