<svg width="284" height="332" viewBox="0 0 284 332" fill="none" xmlns="http://www.w3.org/2000/svg">
<g id="5911276_2992775">
<g id="Background_Complete">
<g id="Group">
<path id="Vector" d="M35.4121 148.626V180.257C35.4121 185.98 40.0508 190.619 45.7745 190.619H159.191C164.914 190.619 169.553 185.98 169.553 180.257V153.531L183.673 138.696L45.807 138.265C40.0707 138.245 35.4121 142.891 35.4121 148.626Z" fill="#F5F5F5"/>
<g id="Group_2">
<path id="Vector_2" d="M152.834 157.427L49.916 156.951L49.9266 153.788L152.845 154.264L152.834 157.427Z" fill="#E0E0E0"/>
</g>
<g id="Group_3">
<path id="Vector_3" d="M152.834 167.834L49.916 167.359L49.9266 164.195L152.845 164.671L152.834 167.834Z" fill="#E0E0E0"/>
</g>
<g id="Group_4">
<path id="Vector_4" d="M112.128 174.609L112.112 177.772L152.834 177.972L152.85 174.809L112.128 174.609Z" fill="#E0E0E0"/>
</g>
</g>
<g id="Group_5">
<path id="Vector_5" d="M140.503 257.92V289.551C140.503 295.274 145.142 299.913 150.865 299.913H264.282C270.005 299.913 274.644 295.274 274.644 289.551V262.825L288.764 247.99L150.898 247.559C145.162 247.54 140.503 252.185 140.503 257.92Z" fill="#F5F5F5"/>
<g id="Group_6">
<path id="Vector_6" d="M258.418 265.899L155.5 265.424L155.511 262.261L258.429 262.736L258.418 265.899Z" fill="#E0E0E0"/>
</g>
<g id="Group_7">
<path id="Vector_7" d="M258.418 276.307L155.5 275.831L155.511 272.668L258.429 273.144L258.418 276.307Z" fill="#E0E0E0"/>
</g>
<g id="Group_8">
<path id="Vector_8" d="M217.711 283.078L217.695 286.241L258.417 286.441L258.433 283.277L217.711 283.078Z" fill="#E0E0E0"/>
</g>
</g>
<path id="Vector_9" d="M96.0342 29.4746H162.928C166.24 29.4746 168.924 32.1585 168.924 35.4699V68.1891C168.924 71.5005 166.24 74.1844 162.928 74.1844H106.163C102.852 74.1844 100.168 71.4998 100.168 68.1891V33.608L96.0342 29.4746Z" fill="#F5F5F5"/>
<g id="Group_9">
<path id="Vector_10" d="M134.814 61.2836V82.262C134.814 86.0574 131.737 89.135 127.941 89.135H52.7186C48.9225 89.135 45.8455 86.0581 45.8455 82.262V64.5365L36.4805 54.6967L127.92 54.4112C131.724 54.3992 134.814 57.4795 134.814 61.2836Z" fill="#E0E0E0"/>
<g id="Group_10">
<path id="Vector_11" d="M56.9331 67.121L125.193 66.8056L125.186 64.708L56.9258 65.0234L56.9331 67.121Z" fill="#F5F5F5"/>
</g>
<g id="Group_11">
<path id="Vector_12" d="M56.9331 74.0233L125.193 73.7079L125.186 71.6104L56.9258 71.9258L56.9331 74.0233Z" fill="#F5F5F5"/>
</g>
<g id="Group_12">
<path id="Vector_13" d="M83.9317 78.5229L56.9229 78.6553L56.9331 80.7535L83.942 80.6212L83.9317 78.5229Z" fill="#F5F5F5"/>
</g>
</g>
<g id="Group_13">
<path id="Vector_14" d="M277.315 158.566V179.545C277.315 183.34 274.238 186.417 270.443 186.417H195.22C191.423 186.417 188.347 183.34 188.347 179.545V161.819L178.981 151.98L270.421 151.693C274.225 151.682 277.315 154.762 277.315 158.566Z" fill="#E0E0E0"/>
<g id="Group_14">
<path id="Vector_15" d="M199.434 164.404L267.695 164.088L267.688 161.99L199.428 162.306L199.434 164.404Z" fill="#F5F5F5"/>
</g>
<g id="Group_15">
<path id="Vector_16" d="M199.434 171.306L267.695 170.991L267.688 168.893L199.428 169.208L199.434 171.306Z" fill="#F5F5F5"/>
</g>
<g id="Group_16">
<path id="Vector_17" d="M226.435 175.811L199.426 175.943L199.436 178.042L226.445 177.909L226.435 175.811Z" fill="#F5F5F5"/>
</g>
</g>
</g>
<g id="Plants">
<g id="Group_17">
<g id="Group_18">
<g id="Group_19">
<path id="Vector_18" d="M212.877 262.712C201.634 251.764 201.449 234.83 204.375 220.113C204.863 217.657 205.017 215.009 206.547 213.033C208.078 211.059 211.062 210.026 213.103 211.43C214.796 212.594 215.246 214.858 215.983 216.791C216.964 219.362 218.681 221.639 220.871 223.273C222.311 224.346 224.175 225.164 225.868 224.562C228.191 223.736 228.924 220.833 229.311 218.373C230.032 213.789 230.753 209.205 231.475 204.622C231.862 202.163 232.265 199.654 233.411 197.446C234.557 195.24 236.6 193.35 239.044 193.078C241.489 192.806 244.158 194.627 244.258 197.112C244.3 198.147 243.926 199.152 243.827 200.183C243.728 201.214 244.019 202.42 244.94 202.863C245.874 203.312 246.971 202.776 247.823 202.177C250.765 200.111 253.009 197.197 255.138 194.283C257.266 191.368 259.36 188.37 262.104 186.042C264.847 183.712 268.381 182.089 271.932 182.467C275.484 182.844 278.877 185.629 279.2 189.229C279.525 192.838 276.929 196.022 274.271 198.466C270.327 202.092 265.866 205.138 261.07 207.48C260.206 207.903 259.269 208.359 258.824 209.221C258.022 210.772 259.308 212.653 260.837 213.455C262.568 214.365 264.586 214.501 266.465 215.04C268.344 215.579 270.281 216.764 270.709 218.693C271.304 221.369 268.773 223.657 266.424 225.043C261.721 227.818 256.549 229.771 251.207 230.793C249.291 231.158 247.294 231.427 245.629 232.458C243.964 233.49 242.723 235.553 243.32 237.428C243.917 239.305 246.087 240.229 248.037 240.187C249.987 240.146 251.851 239.395 253.766 239.01C257.351 238.288 261.673 239.235 263.358 242.507C264.465 244.658 264.153 247.349 263.06 249.518C261.967 251.687 260.187 253.418 258.341 254.98C251.891 260.443 244.126 264.42 235.849 265.853C227.572 267.287 220.195 266.834 212.877 262.712Z" fill="#E8505B"/>
</g>
</g>
<g id="Group_20">
<g id="Group_21">
<g id="Group_22">
<path id="Vector_19" d="M210.891 273.652C212.387 267.877 214.806 261.164 218.22 254.06C221.621 246.949 225.995 239.462 230.839 231.789C232.057 229.876 233.261 227.985 234.447 226.121C235.635 224.264 236.813 222.422 238.077 220.691C240.591 217.218 243.272 214.071 245.91 211.163C248.548 208.253 251.158 205.588 253.615 203.113C256.08 200.643 258.42 198.384 260.641 196.416C265.072 192.462 269.017 189.702 271.801 187.918C273.192 187.021 274.295 186.361 275.048 185.923C275.41 185.716 275.693 185.554 275.907 185.431C276.101 185.323 276.204 185.271 276.207 185.278C276.212 185.285 276.117 185.351 275.93 185.473C275.722 185.605 275.445 185.78 275.094 186.004C274.358 186.467 273.271 187.151 271.896 188.069C269.145 189.898 265.245 192.689 260.854 196.662C258.653 198.64 256.331 200.907 253.883 203.385C251.438 205.87 248.843 208.541 246.219 211.451C243.597 214.36 240.933 217.501 238.439 220.959C237.184 222.682 236.018 224.508 234.828 226.372C233.643 228.234 232.441 230.125 231.224 232.038C226.384 239.705 222.009 247.166 218.597 254.246C215.173 261.318 212.733 267.992 211.202 273.735" fill="#263238"/>
</g>
</g>
</g>
<g id="Group_23">
<g id="Group_24">
<g id="Group_25">
<path id="Vector_20" d="M238.206 220.695C238.175 220.695 238.152 220.308 238.138 219.607C238.12 218.907 238.127 217.894 238.155 216.642C238.208 214.139 238.399 210.684 238.625 206.877C238.851 203.068 238.992 199.621 239.008 197.124C239.018 195.875 239.018 194.865 239.008 194.166C239.002 193.467 239.014 193.079 239.045 193.077C239.077 193.075 239.124 193.46 239.185 194.157C239.25 194.855 239.3 195.868 239.33 197.12C239.399 199.625 239.308 203.088 239.082 206.902C238.85 210.659 238.64 214.057 238.479 216.654C238.414 217.827 238.36 218.816 238.316 219.61C238.275 220.308 238.239 220.696 238.206 220.695Z" fill="#263238"/>
</g>
</g>
</g>
<g id="Group_26">
<g id="Group_27">
<g id="Group_28">
<path id="Vector_21" d="M270.759 219.964C270.755 219.995 270.297 219.974 269.475 219.909C268.652 219.849 267.463 219.754 265.99 219.685C263.046 219.524 258.971 219.443 254.471 219.551C249.971 219.667 245.902 219.945 242.966 220.232C241.496 220.364 240.309 220.504 239.488 220.595C238.668 220.69 238.211 220.727 238.206 220.696C238.201 220.664 238.649 220.566 239.464 220.416C240.278 220.27 241.462 220.081 242.932 219.906C245.869 219.535 249.948 219.204 254.463 219.088C258.975 218.98 263.065 219.112 266.012 219.358C267.487 219.47 268.676 219.613 269.495 219.73C270.313 219.851 270.763 219.932 270.759 219.964Z" fill="#263238"/>
</g>
</g>
</g>
<g id="Group_29">
<g id="Group_30">
<g id="Group_31">
<path id="Vector_22" d="M218.695 253.543C218.679 253.547 218.627 253.402 218.541 253.123C218.446 252.79 218.329 252.384 218.188 251.892C217.886 250.821 217.49 249.261 217.025 247.327C216.094 243.458 214.976 238.075 213.821 232.118C212.666 226.158 211.6 220.771 210.75 216.889C210.331 215.002 209.986 213.449 209.731 212.294C209.622 211.793 209.533 211.381 209.46 211.042C209.403 210.755 209.381 210.601 209.397 210.597C209.412 210.593 209.464 210.738 209.55 211.018C209.646 211.351 209.762 211.757 209.903 212.249C210.205 213.319 210.602 214.88 211.066 216.814C211.997 220.682 213.116 226.065 214.27 232.025C215.425 237.983 216.492 243.37 217.341 247.252C217.761 249.139 218.105 250.693 218.361 251.846C218.469 252.347 218.558 252.761 218.631 253.099C218.688 253.386 218.711 253.539 218.695 253.543Z" fill="#263238"/>
</g>
</g>
</g>
<g id="Group_32">
<g id="Group_33">
<g id="Group_34">
<path id="Vector_23" d="M262.893 246.887C262.894 246.903 262.741 246.938 262.448 246.99C262.102 247.047 261.677 247.115 261.162 247.199C259.976 247.38 258.376 247.624 256.428 247.92C252.432 248.529 246.922 249.434 240.834 250.443C234.745 251.453 229.221 252.307 225.21 252.834C223.205 253.098 221.581 253.296 220.455 253.408C219.936 253.458 219.507 253.498 219.159 253.531C218.862 253.554 218.704 253.558 218.703 253.543C218.702 253.527 218.855 253.491 219.148 253.438C219.493 253.383 219.918 253.313 220.434 253.23C221.619 253.049 223.219 252.805 225.166 252.509C229.162 251.9 234.674 250.994 240.763 249.985C246.85 248.976 252.373 248.122 256.384 247.594C258.389 247.33 260.013 247.133 261.139 247.02C261.659 246.971 262.087 246.93 262.436 246.897C262.734 246.875 262.89 246.871 262.893 246.887Z" fill="#263238"/>
</g>
</g>
</g>
</g>
<g id="Group_35">
<path id="Vector_24" d="M101.176 113.404C99.1233 111.813 98.2057 108.994 98.6346 106.432C99.0635 103.871 100.717 101.603 102.86 100.134C103.85 99.455 105.077 98.9165 106.23 99.2558C107.307 99.5726 108.057 100.62 108.275 101.721C108.493 102.823 108.258 103.966 107.891 105.027C106.63 108.666 104.744 111.956 101.176 113.404Z" fill="#455A64"/>
<path id="Vector_25" d="M97.809 119.62C93.7632 115.929 87.8629 114.385 82.5277 115.62C81.1691 115.935 79.6399 116.653 79.4162 118.029C79.1924 119.408 80.4235 120.577 81.6319 121.277C86.6598 124.192 93.4711 123.644 97.9683 119.963" fill="#455A64"/>
<path id="Vector_26" d="M78.3165 90.8438C80.5589 90.2289 83.017 90.782 85.0017 91.9938C86.9864 93.2056 88.5388 95.0237 89.7825 96.9884C92.1888 100.79 93.0361 105.899 93.143 110.396C88.1504 110.194 83.8849 106.27 81.8457 104.144C78.6233 100.783 74.8392 92.7521 78.3165 90.8438Z" fill="#455A64"/>
<g id="Group_36">
<path id="Vector_27" d="M105.36 126.411C105.067 125.88 104.59 125.505 104.114 124.53C103.177 122.581 101.914 119.811 101.302 116.514C100.693 113.211 101.106 110.095 101.926 108.058C102.325 107.035 102.773 106.262 103.134 105.767C103.491 105.27 103.728 105.028 103.75 105.046C103.837 105.102 102.954 106.149 102.261 108.179C101.55 110.189 101.206 113.206 101.798 116.423C102.395 119.643 103.586 122.401 104.438 124.38" fill="#263238"/>
</g>
<g id="Group_37">
<path id="Vector_28" d="M105.406 126.472C104.738 125.611 103.862 124.482 102.807 123.12C100.619 120.284 97.5868 116.374 94.1812 112.099C90.7755 107.827 87.6414 103.999 85.3652 101.233C84.2729 99.8998 83.3679 98.7943 82.6774 97.9503C82.0472 97.1708 81.7112 96.7292 81.7378 96.706C81.7644 96.6834 82.1501 97.0818 82.8261 97.8222C83.5034 98.5619 84.4642 99.6482 85.6375 101.003C87.9847 103.712 91.1659 107.507 94.5756 111.784C97.9845 116.064 100.975 120.012 103.091 122.905C104.15 124.351 104.994 125.53 105.564 126.356" fill="#263238"/>
</g>
<g id="Group_38">
<path id="Vector_29" d="M85.6457 118.575C85.6377 118.541 85.9451 118.449 86.5115 118.31C86.7937 118.235 87.143 118.158 87.5547 118.111C87.9657 118.058 88.4325 117.97 88.9557 117.96C89.9988 117.879 91.2498 117.923 92.623 118.1C93.9915 118.306 95.4802 118.664 96.9755 119.235C98.4642 119.825 99.8035 120.567 100.952 121.34C102.084 122.137 103.036 122.95 103.75 123.715C104.128 124.076 104.414 124.456 104.681 124.772C104.952 125.086 105.157 125.378 105.315 125.624C105.639 126.11 105.593 126.337 105.564 126.356C105.485 126.414 104.976 125.392 103.498 123.968C102.766 123.249 101.812 122.483 100.692 121.725C99.5558 120.991 98.2444 120.281 96.7922 119.704C95.3334 119.148 93.8866 118.786 92.5533 118.559C91.216 118.361 89.9942 118.281 88.9696 118.316C86.9185 118.368 85.6656 118.671 85.6457 118.575Z" fill="#263238"/>
</g>
</g>
</g>
<g id="Device">
<g id="Group_39">
<g id="Group_40">
<g id="Group_41">
<g id="Group_42">
<g id="Group_43">
<path id="Vector_30" d="M197.031 288L120.339 287.645C111.115 287.603 103.671 280.093 103.71 270.869L104.523 78.5999C104.562 69.371 112.077 61.9216 121.306 61.964L197.999 62.3186C207.222 62.3611 214.666 69.8716 214.627 79.0952L213.815 271.365C213.775 280.593 206.26 288.042 197.031 288Z" fill="#263238"/>
</g>
<g id="Group_44">
<path id="Vector_31" d="M197.891 68.9536L183.022 68.8853C181.028 68.8766 179.404 70.5592 179.396 72.6428L179.384 75.34C179.376 77.425 177.752 79.1075 175.758 79.0982L146.774 78.9641C144.78 78.9548 143.17 77.2576 143.179 75.1727L143.19 72.4755C143.199 70.3912 141.589 68.6934 139.595 68.6841L134.366 68.6595L121.351 68.5997C114.888 68.5699 109.625 73.7869 109.597 80.2503L108.804 267.919C108.777 274.38 113.99 279.64 120.45 279.669L196.989 280.023C203.452 280.053 208.715 274.836 208.742 268.372L209.536 80.7025C209.563 74.2431 204.351 68.9835 197.891 68.9536Z" fill="#FAFAFA"/>
</g>
</g>
</g>
<g id="Group_45">
<path id="Vector_32" d="M154.576 262.056C154.572 262.805 153.863 263.409 152.991 263.405C152.119 263.401 151.414 262.79 151.417 262.041C151.42 261.292 152.13 260.687 153.002 260.691C153.874 260.695 154.578 261.306 154.576 262.056Z" fill="#455A64"/>
</g>
<g id="Group_46">
<path id="Vector_33" d="M159.467 262.078C159.464 262.827 158.755 263.432 157.882 263.428C157.01 263.424 156.306 262.813 156.309 262.063C156.312 261.314 157.022 260.71 157.894 260.714C158.765 260.718 159.471 261.328 159.467 262.078Z" fill="#455A64"/>
</g>
<g id="Group_47">
<path id="Vector_34" d="M164.365 262.1C164.362 262.849 163.652 263.454 162.78 263.449C161.908 263.445 161.203 262.835 161.206 262.086C161.209 261.337 161.919 260.732 162.791 260.736C163.663 260.74 164.368 261.351 164.365 262.1Z" fill="#455A64"/>
</g>
</g>
</g>
<path id="Vector_35" d="M132.479 159.426C133.726 159.604 208.961 174.36 208.961 174.36V159.426H132.479Z" fill="#EBEBEB"/>
<path id="Vector_36" d="M108.808 254.242C108.808 254.242 190.65 242.663 189.937 243.02C189.225 243.376 108.808 243.02 108.808 243.02V254.242Z" fill="#EBEBEB"/>
<g id="Group_48">
<path id="Vector_37" d="M203.853 35.1289C203.949 35.1289 204.026 39.267 204.026 44.3698C204.026 49.4746 203.948 53.6113 203.853 53.6113C203.758 53.6113 203.681 49.4746 203.681 44.3698C203.68 39.267 203.758 35.1289 203.853 35.1289Z" fill="#263238"/>
</g>
<g id="Group_49">
<path id="Vector_38" d="M236.601 56.3969C236.64 56.4846 232.886 58.2256 228.217 60.286C223.547 62.347 219.731 63.9466 219.693 63.859C219.654 63.7713 223.408 62.0303 228.078 59.9693C232.746 57.9095 236.563 56.31 236.601 56.3969Z" fill="#263238"/>
</g>
<g id="Group_50">
<path id="Vector_39" d="M235.776 24.1448C235.786 24.1507 235.724 24.2729 235.598 24.4987C235.449 24.755 235.261 25.079 235.03 25.4781C234.534 26.3267 233.792 27.5398 232.864 29.0325C231.005 32.0158 228.329 36.0695 225.298 40.4911C222.267 44.914 219.562 48.9412 217.652 51.8887C216.717 53.3349 215.953 54.5188 215.394 55.382C215.14 55.7664 214.935 56.0792 214.771 56.3269C214.626 56.5407 214.544 56.6502 214.534 56.6442C214.524 56.6383 214.585 56.5161 214.712 56.2903C214.861 56.034 215.049 55.71 215.28 55.3109C215.776 54.4623 216.518 53.2492 217.446 51.7565C219.305 48.7732 221.982 44.7188 225.013 40.2959C228.043 35.8743 230.748 31.8478 232.658 28.9003C233.592 27.4541 234.357 26.2702 234.916 25.4064C235.169 25.0219 235.375 24.7092 235.539 24.4615C235.684 24.2477 235.765 24.1388 235.776 24.1448Z" fill="#263238"/>
</g>
</g>
<g id="Speech_Bubbles">
<g id="Group_51">
<path id="Vector_40" d="M212.628 209.862H61.7039C59.4417 209.862 57.6084 211.696 57.6084 213.958V263.085C57.6084 265.347 59.4424 267.18 61.7039 267.18H171.316L181.294 278.022C181.294 278.022 182.341 271.928 183.223 267.18H212.628C214.889 267.18 216.723 265.346 216.723 263.085V213.958C216.723 211.696 214.889 209.862 212.628 209.862Z" fill="#455A64"/>
<g id="Group_52">
<g id="Group_53">
<path id="Vector_41" d="M206.71 235.196C206.71 235.292 188.894 235.369 166.92 235.369C144.94 235.369 127.127 235.291 127.127 235.196C127.127 235.1 144.939 235.023 166.92 235.023C188.893 235.023 206.71 235.1 206.71 235.196Z" fill="#F5F5F5"/>
</g>
<g id="Group_54">
<path id="Vector_42" d="M206.71 228.058C206.71 228.154 188.894 228.231 166.92 228.231C144.94 228.231 127.127 228.153 127.127 228.058C127.127 227.963 144.939 227.886 166.92 227.886C188.893 227.885 206.71 227.963 206.71 228.058Z" fill="#F5F5F5"/>
</g>
<g id="Group_55">
<path id="Vector_43" d="M206.71 242.255C206.71 242.35 188.894 242.427 166.92 242.427C144.94 242.427 127.127 242.35 127.127 242.255C127.127 242.16 144.939 242.082 166.92 242.082C188.893 242.082 206.71 242.159 206.71 242.255Z" fill="#F5F5F5"/>
</g>
<g id="Group_56">
<path id="Vector_44" d="M179.255 249.566C179.255 249.662 167.584 249.739 153.192 249.739C138.795 249.739 127.127 249.661 127.127 249.566C127.127 249.471 138.795 249.394 153.192 249.394C167.584 249.394 179.255 249.471 179.255 249.566Z" fill="#F5F5F5"/>
</g>
</g>
</g>
</g>
</g>
</svg>
